<?xml version="1.0" encoding="UTF-8" standalone="no"?>
<!-- Created with Inkscape (http://www.inkscape.org/) -->

<svg
   xmlns:dc="http://purl.org/dc/elements/1.1/"
   xmlns:cc="http://creativecommons.org/ns#"
   xmlns:rdf="http://www.w3.org/1999/02/22-rdf-syntax-ns#"
   xmlns:svg="http://www.w3.org/2000/svg"
   xmlns="http://www.w3.org/2000/svg"
   xmlns:sodipodi="http://sodipodi.sourceforge.net/DTD/sodipodi-0.dtd"
   xmlns:inkscape="http://www.inkscape.org/namespaces/inkscape"
   width="520"
   height="520"
   viewBox="0 0 520 520"
   version="1.1"
   id="svg8"
   inkscape:version="0.92.4 (5da689c313, 2019-01-14)"
   sodipodi:docname="11.svg">
  <defs
     id="defs2" />
  <sodipodi:namedview
     id="base"
     pagecolor="#ffffff"
     bordercolor="#666666"
     borderopacity="1.0"
     inkscape:pageopacity="0.0"
     inkscape:pageshadow="2"
     inkscape:zoom="1.1306641"
     inkscape:cx="242.19727"
     inkscape:cy="316.08348"
     inkscape:document-units="px"
     inkscape:current-layer="layer1"
     showgrid="false"
     units="px"
     inkscape:window-width="1920"
     inkscape:window-height="1001"
     inkscape:window-x="-9"
     inkscape:window-y="-9"
     inkscape:window-maximized="1" />
  <metadata
     id="metadata5">
    <rdf:RDF>
      <cc:Work
         rdf:about="">
        <dc:format>image/svg+xml</dc:format>
        <dc:type
           rdf:resource="http://purl.org/dc/dcmitype/StillImage" />
        <dc:title></dc:title>
      </cc:Work>
    </rdf:RDF>
  </metadata>
  <g
     inkscape:label="圖層 1"
     inkscape:groupmode="layer"
     id="layer1"
     transform="translate(0,-159.41665)">
    <path
       style="fill:#000000;fill-opacity:1;stroke:#000000;stroke-width:1px;stroke-linecap:butt;stroke-linejoin:miter;stroke-opacity:1"
       d="m 82.551571,330.44865 c 7.504688,1.87617 24.390239,10.63164 24.390239,10.63164 0,0 13.75859,23.45214 18.13633,20.95058 4.37773,-2.50156 29.39336,-18.44902 29.39336,-18.44902 l 15.32207,-1.25079 28.45528,15.00938 -5.00313,24.39024 -43.15195,39.39961 -16.88555,2.50157 -13.7586,-13.13321 -3.75234,-1.25078 c 0,0 -0.62539,40.6504 -0.62539,44.40274 v 33.14571 c 0,1.25078 78.17383,-66.29142 78.17383,-66.29142 l 31.26954,-17.51094 c 0,0 -30.64415,57.53595 -30.64415,60.03751 0,2.50156 -19.38711,31.26953 -19.38711,31.26953 0,0 -41.27578,32.52032 -41.27578,35.64727 0,3.12696 -51.90743,61.28829 -51.90743,61.28829 L 67.542195,604.99516 48.155083,601.24281 34.396488,574.9764 c 0,0 -4.377735,-15.63476 -2.501563,-18.76172 1.876172,-3.12695 9.380861,-32.52031 9.380861,-32.52031 l 20.012502,3.12695 18.761721,-18.13633 c 0,0 1.250781,-78.17384 1.250781,-81.92618 0,-3.75234 -8.75547,-43.77735 -8.75547,-43.77735 L 60.662897,359.21662 71.294539,337.32794 Z"
       id="path923"
       inkscape:connector-curvature="0"
       sodipodi:nodetypes="ccsccccccccssccscsccccccccscccc" />
    <path
       style="fill:#000000;fill-opacity:1;stroke:#000000;stroke-width:1px;stroke-linecap:butt;stroke-linejoin:miter;stroke-opacity:1"
       d="m 232.01995,289.79825 c -0.62539,-2.50156 -7.50469,-15.00938 -7.50469,-19.38711 0,-4.37774 11.88242,-20.01251 11.88242,-20.01251 l 18.13633,-5.00312 c 0,0 5.00313,-0.62539 7.50469,0.62539 2.50156,1.25078 23.76485,11.25703 23.76485,11.25703 0,0 11.25703,16.88555 11.25703,19.38711 0,2.50157 -5.00313,32.52032 -5.00313,32.52032 0,0 -8.13008,28.14258 -6.87929,31.89493 1.25078,3.75234 8.13007,15.00937 8.13007,15.00937 l 21.88868,-5.00312 48.78047,-47.5297 2.50157,-5.62851 -0.62539,-13.7586 -4.37774,-16.26016 20.63789,5.00313 18.76172,16.88555 9.38086,30.01875 -8.13007,15.00938 -34.39649,17.51094 -32.52032,20.63789 -36.89805,5.62852 -16.57285,-6.25391 -11.56973,68.16759 c 0,0 -5.00313,38.77422 -5.00313,42.52656 0,3.75235 11.25704,28.14258 11.25704,28.14258 l 26.8918,20.6379 c 0,0 43.77734,1.25078 46.27891,1.87617 2.50156,0.62539 66.9168,-8.75547 66.9168,-8.75547 l 46.27891,-6.8793 c 0,0 18.76172,12.50782 18.76172,15.00938 0,2.50156 -0.62539,15.63477 -0.62539,15.63477 l -6.87929,9.38086 c 0,0 -39.39962,0.62539 -43.15196,0.62539 -3.75235,0 -80.05001,-3.12696 -80.05001,-3.12696 l -46.59161,-6.5666 -28.45527,-14.69668 -29.39337,-44.40274 -5.62851,-43.77735 8.75547,-59.41211 v -43.15196 l 6.2539,-36.27266 -1.87617,-12.50782 -9.38086,-8.75547 -5.62852,-0.62539 z"
       id="path925"
       inkscape:connector-curvature="0"
       sodipodi:nodetypes="csccscscccccccccccccccccsccsccsccscccccccccccc" />
  </g>
</svg>
