<?xml version="1.0" encoding="UTF-8" standalone="no"?>
<!-- Created with Inkscape (http://www.inkscape.org/) -->

<svg
   xmlns:dc="http://purl.org/dc/elements/1.1/"
   xmlns:cc="http://creativecommons.org/ns#"
   xmlns:rdf="http://www.w3.org/1999/02/22-rdf-syntax-ns#"
   xmlns:svg="http://www.w3.org/2000/svg"
   xmlns="http://www.w3.org/2000/svg"
   xmlns:sodipodi="http://sodipodi.sourceforge.net/DTD/sodipodi-0.dtd"
   xmlns:inkscape="http://www.inkscape.org/namespaces/inkscape"
   width="520"
   height="520"
   viewBox="0 0 520 520"
   version="1.1"
   id="svg8"
   inkscape:version="0.92.4 (5da689c313, 2019-01-14)"
   sodipodi:docname="13.svg">
  <defs
     id="defs2" />
  <sodipodi:namedview
     id="base"
     pagecolor="#ffffff"
     bordercolor="#666666"
     borderopacity="1.0"
     inkscape:pageopacity="0.0"
     inkscape:pageshadow="2"
     inkscape:zoom="1.1306641"
     inkscape:cx="212.94259"
     inkscape:cy="227.80144"
     inkscape:document-units="px"
     inkscape:current-layer="layer1"
     showgrid="false"
     units="px"
     inkscape:window-width="1920"
     inkscape:window-height="1001"
     inkscape:window-x="-9"
     inkscape:window-y="-9"
     inkscape:window-maximized="1"
     showguides="false" />
  <metadata
     id="metadata5">
    <rdf:RDF>
      <cc:Work
         rdf:about="">
        <dc:format>image/svg+xml</dc:format>
        <dc:type
           rdf:resource="http://purl.org/dc/dcmitype/StillImage" />
        <dc:title></dc:title>
      </cc:Work>
    </rdf:RDF>
  </metadata>
  <g
     inkscape:label="圖層 1"
     inkscape:groupmode="layer"
     id="layer1"
     transform="translate(0,-159.41665)">
    <path
       style="fill:#000000;fill-opacity:1;stroke:none;stroke-width:1px;stroke-linecap:butt;stroke-linejoin:miter;stroke-opacity:1"
       d="m 190.74416,313.56309 -19.60171,15.3443 -21.04868,19.05219 -9.38086,13.13321 -3.12696,11.88242 -11.88242,3.75234 -13.13321,-8.75547 -11.88242,-16.88554 -4.453606,-14.71891 1.876172,-13.83446 12.583684,-12.72242 8.7869,9.07737 11.851,5.93201 61.91367,-31.26954 v -6.8793 l -3.75234,-4.37773 1.25078,-20.0125 10.00625,1.25078 13.13321,10.63164 14.38398,19.38711 3.75235,11.88243 -9.38086,6.87929 -20.6379,64.41524 c 0,0 -4.37773,31.89493 -1.87617,30.64415 2.50156,-1.25078 33.14571,-33.7711 35.02188,-36.27266 1.87617,-2.50156 43.15196,-51.28204 46.9043,-55.03438 3.75235,-3.75235 11.25703,-5.00313 11.25703,-8.13008 0,-3.12695 4.37774,-22.51407 4.37774,-22.51407 l -15.00938,-11.25703 c 0,0 -6.2539,-5.00312 -5.00312,-7.50469 1.25078,-2.50156 10.00625,-5.62851 10.00625,-5.62851 l 2.50156,-6.25391 -5.62851,-10.00625 10.00625,-12.50782 18.76172,6.25391 13.1332,19.38711 -1.87617,30.01876 -14.85763,56.28516 -6.25391,113.80269 2.34982,31.91334 7.50469,29.39336 31.23811,15.29985 c 0,0 37.55486,3.46187 40.68182,3.46187 3.12695,0 45.02813,-7.50468 45.02813,-7.50468 l 8.75547,-35.64727 6.87929,-41.27579 18.13633,47.52969 7.50469,22.51407 c 0,0 13.7586,6.2539 16.26016,7.50469 2.50156,1.25078 7.50469,8.13007 7.50469,8.13007 l -5.00313,13.13321 -8.13008,8.13008 -61.28828,3.75234 -59.41212,0.62539 -28.14258,-5.00312 -22.51407,-15.00938 -19.38711,-41.90118 c 0,0 -6.2539,-45.02813 -5.62851,-47.52969 0.62539,-2.50156 0.47364,-60.22068 1.09903,-63.34763 0.62539,-3.12695 2.68473,-33.43618 2.68473,-33.43618 l 6.22249,-38.92597 -2.50157,-3.12695 -3.12695,1.87617 -8.44277,14.07129 -31.0009,42.97537 -30.95526,37.58853 -18.13094,15.91985 c 0,0 -2.77717,39.53873 -2.15178,43.91646 0.62539,4.37774 -6.25391,63.78985 -6.25391,63.78985 l -14.38398,48.78048 -22.51407,26.8918 -11.88242,8.75547 L 128.20509,609.99828 100.6879,581.8557 88.180088,570.59867 86.303916,561.21781 H 99.43712 l 39.39961,8.13008 29.39337,1.87617 11.25703,-20.0125 5.62852,-46.9043 3.75234,-35.02188 2.50156,-35.02188 -23.13945,21.26328 c -11.54349,15.59427 -29.18011,29.83452 -48.15509,43.77735 l -62.539066,46.9043 -12.507814,6.25391 -5.003126,16.26016 c 0,0 -19.387111,5.62851 -22.514065,-4.37774 0,0 -10.6316414,-21.88867 -5.003125,-25.01563 8.015123,-8.12236 15.930332,-22.45977 24.702932,-23.76484 3.960808,-0.4122 7.60892,0.31468 11.569728,6.25391 0,0 114.570126,-74.19849 117.886146,-85.67853 0,0 15.22032,-11.65262 11.56973,-13.75859 l -20.6379,1.87617 c 0,0 -19.38711,-11.88243 -14.38398,-20.6379 l 13.75859,1.25079 c 0,0 18.13633,-11.88243 25.64102,-6.25391 -1.369,0.94777 12.52076,-70.77433 10.31895,-77.23575 z"
       id="path961"
       inkscape:connector-curvature="0"
       sodipodi:nodetypes="cccccccccccccccccccccccsssscccccccccccccccsccccccccccccccssccccccccscccccccccccccccccccccccccccccccc" />
  </g>
</svg>
