<?xml version="1.0" encoding="UTF-8" standalone="no"?>
<!-- Created with Inkscape (http://www.inkscape.org/) -->

<svg
   xmlns:dc="http://purl.org/dc/elements/1.1/"
   xmlns:cc="http://creativecommons.org/ns#"
   xmlns:rdf="http://www.w3.org/1999/02/22-rdf-syntax-ns#"
   xmlns:svg="http://www.w3.org/2000/svg"
   xmlns="http://www.w3.org/2000/svg"
   xmlns:sodipodi="http://sodipodi.sourceforge.net/DTD/sodipodi-0.dtd"
   xmlns:inkscape="http://www.inkscape.org/namespaces/inkscape"
   width="520"
   height="520"
   viewBox="0 0 520 520"
   version="1.1"
   id="svg8"
   inkscape:version="0.92.4 (5da689c313, 2019-01-14)"
   sodipodi:docname="14.svg">
  <defs
     id="defs2" />
  <sodipodi:namedview
     id="base"
     pagecolor="#ffffff"
     bordercolor="#666666"
     borderopacity="1.0"
     inkscape:pageopacity="0.0"
     inkscape:pageshadow="2"
     inkscape:zoom="1.1306641"
     inkscape:cx="338.80328"
     inkscape:cy="277.70739"
     inkscape:document-units="px"
     inkscape:current-layer="layer1"
     showgrid="false"
     units="px"
     inkscape:window-width="1920"
     inkscape:window-height="1001"
     inkscape:window-x="-9"
     inkscape:window-y="-9"
     inkscape:window-maximized="1"
     showguides="false" />
  <metadata
     id="metadata5">
    <rdf:RDF>
      <cc:Work
         rdf:about="">
        <dc:format>image/svg+xml</dc:format>
        <dc:type
           rdf:resource="http://purl.org/dc/dcmitype/StillImage" />
        <dc:title></dc:title>
      </cc:Work>
    </rdf:RDF>
  </metadata>
  <g
     inkscape:label="圖層 1"
     inkscape:groupmode="layer"
     id="layer1"
     transform="translate(0,-159.41665)">
    <path
       style="fill:#000000;stroke:#000000;stroke-width:1px;stroke-linecap:butt;stroke-linejoin:miter;stroke-opacity:1;fill-opacity:1"
       d="m 96.935557,262.90645 -13.758595,-10.00625 -0.625391,-6.25391 -2.501562,-11.88242 8.755469,-11.25703 14.383982,4.37773 21.88868,44.40274 -15.00938,17.51094 -15.009375,47.52969 c 0,0 3.752344,86.30392 3.752344,90.05626 0,3.75234 -8.755469,109.44337 -8.755469,111.94493 0,2.50157 -1.876172,22.51407 0,27.5172 1.876172,5.00312 13.1332,48.78047 13.1332,48.78047 l -12.50781,5.62852 -16.260158,-12.50782 -11.882423,-15.00937 -0.62539,-24.39024 8.130079,-12.50782 -1.250782,-21.88867 9.380861,5.00313 8.755469,-26.8918 3.752344,-96.93556 -1.250781,-80.6754 6.879298,-33.14571 z"
       id="path974"
       inkscape:connector-curvature="0" />
    <path
       style="fill:#000000;stroke:#000000;stroke-width:1px;stroke-linecap:butt;stroke-linejoin:miter;stroke-opacity:1;fill-opacity:1"
       d="m 37.523442,379.85451 -11.257033,35.64727 11.882423,29.39336 c 0,0 6.253907,9.38086 8.75547,8.13008 2.501563,-1.25078 16.885549,-10.63164 16.885549,-10.63164 l 1.250781,-14.38399 -13.133204,-31.26953 -5.628517,-15.63477 z"
       id="path976"
       inkscape:connector-curvature="0" />
    <path
       style="fill:#000000;stroke:#000000;stroke-width:1px;stroke-linecap:butt;stroke-linejoin:miter;stroke-opacity:1;fill-opacity:1"
       d="m 118.82423,322.94396 c 5.62852,1.25078 15.63477,20.63789 15.63477,20.63789 l -6.8793,15.00937 c 0,0 3.12695,6.25391 5.62852,6.25391 2.50156,0 26.26641,-11.88242 26.26641,-11.88242 l 6.87929,-18.76172 -11.88242,-11.25703 -24.39024,-6.25391 z"
       id="path978"
       inkscape:connector-curvature="0" />
    <path
       style="fill:#000000;fill-opacity:1;stroke:#000000;stroke-width:1px;stroke-linecap:butt;stroke-linejoin:miter;stroke-opacity:1"
       d="m 190.11877,305.43302 34.39649,-11.25704 26.8918,-9.38086 5.00312,-8.13008 1.87618,-11.88242 -9.38086,-4.37773 -4.37774,6.2539 -7.50469,1.25078 11.25704,-32.52031 10.00625,-12.50782 7.50468,-18.76172 13.7586,2.50157 7.50469,14.38398 -3.75235,36.89805 -1.25078,20.6379 23.13946,-10.63165 12.50781,-10.63164 35.02188,6.25391 11.88242,8.75547 -1.25078,12.50781 -21.88867,-0.62539 -65.04063,12.50782 c 0,0 -18.13633,34.39648 -15.63477,34.39648 2.50156,0 35.02188,-5.00312 35.02188,-5.00312 l 37.52344,-8.75547 c 0,0 6.25391,-1.25078 10.63164,-0.62539 4.37774,0.62539 23.76485,16.88555 23.76485,16.88555 0,0 -22.51407,38.14883 -23.76485,41.90117 -1.25078,3.75235 -10.63164,21.88868 -10.63164,21.88868 0,0 10.63164,6.2539 4.37773,7.50469 -6.2539,1.25078 -10.63164,5.00312 -10.63164,5.00312 l -13.1332,26.8918 -8.13008,-18.76172 5.62852,-7.50469 -11.88243,-5.00312 -63.16446,20.63789 -38.77422,21.26328 -11.88242,6.8793 c -8.50032,-0.3402 -13.36321,-5.53031 -16.88555,-12.50781 l 7.50469,-16.88555 c 0,0 11.16891,8.00646 13.75859,6.25391 5.26464,-3.56281 18.22603,-9.53035 18.13633,-9.38086 l -1.87617,-2.50157 -12.50782,-13.1332 c 0,0 -12.50781,-5.00313 -18.13633,-5.62852 -5.62851,-0.62539 -17.51093,-1.25078 -17.51093,-1.25078 l 13.75859,-21.88867 13.13321,-14.38399 13.75859,-3.12695 11.25703,10.63164 6.25391,28.14258 8.75547,18.76172 48.78047,-18.13633 -3.75234,-15.00938 -2.50156,-11.25703 -1.87618,-21.26328 23.13946,8.75547 9.38086,33.4584 16.26016,-6.5666 23.76484,-35.02188 3.12696,-23.13946 -15.00938,0.3127 -28.14258,14.07129 -24.39024,-4.37774 -17.51094,-1.25078 -7.50468,10.00625 -21.26329,12.50782 c 0,0 -18.13633,2.50156 -11.88242,1.87617 6.25391,-0.62539 16.88555,-16.88555 16.88555,-16.88555 l 11.25703,-20.0125 10.63164,-17.51094 -2.50156,-3.75235 c 0,0 -28.76797,16.88555 -31.26954,18.13633 -2.50156,1.25079 -16.88554,-1.25078 -16.88554,-1.25078 l -5.00313,-10.00625 z"
       id="path980"
       inkscape:connector-curvature="0"
       sodipodi:nodetypes="ccccccccccccccccccccccsccscsccccccccccccscccsccccccccccccccccccccccscccccccc" />
    <path
       style="fill:#000000;fill-opacity:1;stroke:#000000;stroke-width:1px;stroke-linecap:butt;stroke-linejoin:miter;stroke-opacity:1"
       d="m 238.27386,368.28478 15.00937,10.00625 c -4.45111,12.12174 -13.42372,19.72199 -21.88867,27.82989 0,0 -2.50157,-3.12696 -2.50157,-5.62852 0,-2.50156 9.38087,-32.20762 9.38087,-32.20762 z"
       id="path982"
       inkscape:connector-curvature="0"
       sodipodi:nodetypes="cccsc" />
    <path
       style="fill:#000000;fill-opacity:1;stroke:#000000;stroke-width:1px;stroke-linecap:butt;stroke-linejoin:miter;stroke-opacity:1"
       d="m 215.75979,456.15217 c 4.72552,-0.2776 34.99715,-19.77033 32.52032,-18.13633 -5.5483,3.66029 14.11243,-5.89343 29.39336,-6.8793 5.8081,2.63242 8.33316,5.92145 10.00625,9.38087 l -33.7711,15.00937 -22.51406,6.8793 z"
       id="path984"
       inkscape:connector-curvature="0"
       sodipodi:nodetypes="csccccc" />
    <path
       style="fill:#000000;fill-opacity:1;stroke:#000000;stroke-width:1px;stroke-linecap:butt;stroke-linejoin:miter;stroke-opacity:1"
       d="m 158.22385,508.68499 6.87929,5.62852 40.6504,-12.50782 c 28.01711,-15.24156 37.85524,-18.90416 55.65977,-25.32832 l 17.82363,-9.06816 14.69669,-12.50782 c 3.52476,-3.6108 7.94091,-4.10172 13.1332,-1.87617 l 3.75234,9.38086 -21.26328,13.4459 -35.33457,40.96309 -4.69043,47.52969 c 0,0 1.87617,36.89805 1.87617,40.02501 0,3.12695 10.63164,-5.62852 10.63164,-5.62852 l 42.21387,-43.15196 10.94434,-18.76172 -16.26016,-13.75859 21.88868,5.62851 25.01562,-41.27578 -62.53907,33.77109 -20.0125,5.62852 c 0,0 0,-8.75547 5.00313,-8.75547 5.00312,0 33.1457,-19.38711 34.39648,-21.88867 1.25078,-2.50157 41.90118,-30.01876 44.40274,-32.52032 2.50157,-2.50156 11.88243,-14.38398 11.88243,-14.38398 l 9.38086,-13.7586 24.39024,15.63477 c 0,0 15.00937,12.50781 1.87617,15.00937 -13.13321,2.50157 -31.26954,9.38086 -31.26954,9.38086 l -23.76484,62.53907 74.42149,33.14571 c 0,0 5.00312,-1.87617 22.51406,10.00625 17.51094,11.88242 18.76172,15.63477 18.76172,15.63477 l 6.25391,22.51406 -12.50781,4.37774 c 0,0 -12.50782,-11.88242 -16.26016,-12.50782 -3.75234,-0.62539 -29.39336,-21.26328 -29.39336,-21.26328 l -50.03126,-35.02188 -25.95372,-8.44277 c -13.35613,24.79269 -27.76629,48.53136 -41.90117,72.54532 l -22.82676,24.70293 -6.25391,13.13321 -16.88554,-4.37774 -3.12696,-18.13633 c -4.38254,-3.956 -7.08829,-9.58879 -10.63164,-14.38399 l 10.63164,-6.87929 5.62852,-76.92306 2.50156,-10.00625 -7.50469,1.25078 c -20.4432,22.92411 -43.05009,44.76637 -65.04063,66.91681 l -31.26953,21.26328 c 0,0 -15.63477,3.75234 -15.00938,1.25078 0.62539,-2.50156 4.37773,-12.50781 4.37773,-12.50781 l 0.62539,-18.13633 c 0,0 10.63165,13.1332 13.13321,13.1332 2.50156,0 77.54845,-66.29141 77.54845,-66.29141 l 30.01875,-32.52032 18.76172,-16.26016 -21.88867,7.50469 -48.15509,26.8918 c -12.09014,6.67058 -16.38751,10.74358 -36.27266,20.0125 l -4.37773,7.50469 c 0,0 -13.13321,-2.50156 -10.63165,-3.12695 2.50157,-0.62539 -6.87929,-23.13946 -6.87929,-23.13946 l 8.13008,-7.50468 3.12695,-9.38087 z"
       id="path986"
       inkscape:connector-curvature="0"
       sodipodi:nodetypes="cccccccccccsccccccccscccccscccscccccccccccccccccccsccscccccccscccc" />
  </g>
</svg>
