<?xml version="1.0" encoding="UTF-8" standalone="no"?>
<!-- Created with Inkscape (http://www.inkscape.org/) -->

<svg
   xmlns:dc="http://purl.org/dc/elements/1.1/"
   xmlns:cc="http://creativecommons.org/ns#"
   xmlns:rdf="http://www.w3.org/1999/02/22-rdf-syntax-ns#"
   xmlns:svg="http://www.w3.org/2000/svg"
   xmlns="http://www.w3.org/2000/svg"
   xmlns:sodipodi="http://sodipodi.sourceforge.net/DTD/sodipodi-0.dtd"
   xmlns:inkscape="http://www.inkscape.org/namespaces/inkscape"
   width="520"
   height="520"
   viewBox="0 0 520 520"
   version="1.1"
   id="svg8"
   inkscape:version="0.92.4 (5da689c313, 2019-01-14)"
   sodipodi:docname="16.svg">
  <defs
     id="defs2" />
  <sodipodi:namedview
     id="base"
     pagecolor="#ffffff"
     bordercolor="#666666"
     borderopacity="1.0"
     inkscape:pageopacity="0.0"
     inkscape:pageshadow="2"
     inkscape:zoom="1.1306641"
     inkscape:cx="225.58139"
     inkscape:cy="261.05818"
     inkscape:document-units="px"
     inkscape:current-layer="layer1"
     showgrid="false"
     units="px"
     inkscape:window-width="1920"
     inkscape:window-height="1001"
     inkscape:window-x="-9"
     inkscape:window-y="-9"
     inkscape:window-maximized="1"
     showguides="false" />
  <metadata
     id="metadata5">
    <rdf:RDF>
      <cc:Work
         rdf:about="">
        <dc:format>image/svg+xml</dc:format>
        <dc:type
           rdf:resource="http://purl.org/dc/dcmitype/StillImage" />
        <dc:title></dc:title>
      </cc:Work>
    </rdf:RDF>
  </metadata>
  <g
     inkscape:label="圖層 1"
     inkscape:groupmode="layer"
     id="layer1"
     transform="translate(0,-159.41665)">
    <path
       style="fill:#000000;stroke:none;stroke-width:1px;stroke-linecap:butt;stroke-linejoin:miter;stroke-opacity:1;fill-opacity:1"
       d="m 164.5051,194.74572 17.68872,-8.84436 21.22646,22.1109 1.76887,14.15098 -22.99533,14.15097 -42.45293,26.53308 -31.8397,21.22647 0.88444,-8.84436 c 0,0 37.14631,-35.37744 40.68405,-39.79962 3.53775,-4.42218 22.1109,-22.1109 22.1109,-22.1109 l 2.65331,-6.19105 z"
       id="path1012"
       inkscape:connector-curvature="0" />
    <path
       style="fill:#000000;stroke:none;stroke-width:1px;stroke-linecap:butt;stroke-linejoin:miter;stroke-opacity:1;fill-opacity:1"
       d="m 314.85922,170.86595 23.87977,4.42218 12.3821,1.76887 27.41752,35.37744 11.49767,-4.42218 -2.65331,30.95526 -15.03541,-0.88443 -38.03075,-7.07549 -10.61323,-10.61323 22.1109,-22.1109 -5.30662,-9.7288 z"
       id="path1014"
       inkscape:connector-curvature="0" />
    <path
       style="fill:#000000;fill-opacity:1;stroke:none;stroke-width:1px;stroke-linecap:butt;stroke-linejoin:miter;stroke-opacity:1"
       d="m 191.03818,299.10917 8.57611,-14.15098 11.76591,17.68872 8.84436,5.30662 70.38854,-20.65473 10.09514,-16.49158 6.19105,-15.91985 22.99534,17.68872 21.22646,18.57316 c 0,0 -23.87977,9.72879 -27.41751,12.3821 -3.53775,2.65331 -18.57316,36.26188 -18.57316,36.26188 l 21.22646,15.03541 -12.3821,6.19105 -80.43002,19.56489 -52.23538,29.96353 -12.3821,-16.14096 c -5.30662,-3.07019 -10.61323,-9.98267 -15.91985,-16.58318 l 127.35878,-36.26187 7.95993,-33.60857 -66.78794,29.70448 -21.08393,-19.86839 c -5.96967,-2.87468 -7.51073,-11.74145 -9.41609,-18.68045 z"
       id="path1016"
       inkscape:connector-curvature="0"
       sodipodi:nodetypes="cccccccccccccccccccccc" />
    <path
       style="fill:#000000;fill-opacity:1;stroke:none;stroke-width:1px;stroke-linecap:butt;stroke-linejoin:miter;stroke-opacity:1"
       d="m 105.6901,360.79858 c 9.17172,4.16182 15.23067,2.71278 23.87978,11.05545 9.86979,2.72549 21.59301,15.7478 34.05078,29.4075 l -4.8644,12.60321 -7.95992,19.45759 c -3.83256,31.54488 -1.28264,63.08977 -11.49767,94.63465 -2.26559,7.303 -4.8283,14.50696 -8.84436,21.22647 l -16.80429,-32.72413 c -5.16311,-7.06899 -11.25076,-12.59707 -14.814297,-22.33202 l -2.874417,-16.58317 17.246504,4.8644 c 8.14682,-1.88003 10.17101,-49.85648 10.17101,-51.73951 v -22.99533 l -5.52773,-31.39748 z"
       id="path1018"
       inkscape:connector-curvature="0"
       sodipodi:nodetypes="cccccccccccsccc" />
    <path
       style="fill:#000000;fill-opacity:1;stroke:none;stroke-width:1px;stroke-linecap:butt;stroke-linejoin:miter;stroke-opacity:1"
       d="m 151.90188,441.39281 c -0.50433,4.33637 3.25547,7.80017 4.8644,11.60822 l 8.40214,13.81932 8.95492,2.87441 c 0,0 27.74918,-18.02038 28.52306,-18.02038 0.77388,0 36.70409,-14.04042 37.14631,-14.04042 0.44222,0 10.83434,-2.87442 11.27656,-2.87442 0.44222,0 6.52272,1.10555 6.52272,1.10555 l -7.2966,17.68872 -43.77958,44.55346 -35.81966,43.77958 -9.7288,11.93989 -35.81966,27.85973 -16.36206,-17.2465 -6.19105,30.51304 -8.402146,23.43756 11.497666,5.30661 17.68872,-14.15097 49.97064,-48.20177 c 0,0 35.37744,-44.66401 38.03074,-45.99067 2.65331,-1.32665 40.24184,-37.58853 40.24184,-37.58853 l 5.30662,10.17102 -3.97996,57.04612 c 0,0 -3.09553,26.09086 -3.09553,27.85973 0,1.76887 -5.30662,3.53775 -5.30662,3.53775 0,0 -5.74883,26.53308 -5.74883,27.41751 0,0.88444 3.53774,22.55312 3.53774,22.55312 0,0 6.63327,18.13094 8.40215,23.87977 1.76887,5.74884 7.5177,14.5932 7.5177,14.5932 l 13.70876,-13.26654 1.76887,-24.76421 -3.53774,-71.1971 -2.65331,-86.67473 5.74883,-25.64864 0.88444,-12.38211 c 0,0 57.04612,-9.28657 60.14165,-9.72879 3.09552,-0.44222 30.07082,-6.63327 30.07082,-6.63327 l 12.82432,7.07549 2.21109,22.99533 0.88444,28.74417 -4.8644,12.38211 -22.55312,-1.76888 -15.91984,-8.84436 -37.58853,9.28658 2.6533,5.30662 c 0,0 3.97997,-1.76887 3.97997,0.44222 0,2.21109 -3.09553,22.55311 -3.09553,22.55311 0,0 11.05545,18.13094 13.70876,17.68872 2.65331,-0.44221 24.32199,-0.44221 25.20642,-2.21109 0.88444,-1.76887 15.91985,-8.40214 15.91985,-8.40214 l 20.34203,8.84436 13.26654,-14.59319 18.57316,-57.48834 -1.76888,-19.01538 6.63327,-18.57315 -31.83969,-25.64865 -14.15098,-3.97996 -11.49767,7.95993 -7.07548,7.5177 -75.17706,14.5932 5.74883,-10.17102 -19.45759,-19.45759 h -12.82432 l -19.01538,9.28658 21.22647,13.26654 4.86439,8.84436 -68.10157,18.13094 -21.55812,3.97996 z"
       id="path1020"
       inkscape:connector-curvature="0"
       sodipodi:nodetypes="ccccsssccccccccccccccccscscccccccccscccccccccsccccccccccccccccccccccc" />
  </g>
</svg>
