<?xml version="1.0" encoding="UTF-8" standalone="no"?>
<!-- Created with Inkscape (http://www.inkscape.org/) -->

<svg
   xmlns:dc="http://purl.org/dc/elements/1.1/"
   xmlns:cc="http://creativecommons.org/ns#"
   xmlns:rdf="http://www.w3.org/1999/02/22-rdf-syntax-ns#"
   xmlns:svg="http://www.w3.org/2000/svg"
   xmlns="http://www.w3.org/2000/svg"
   xmlns:sodipodi="http://sodipodi.sourceforge.net/DTD/sodipodi-0.dtd"
   xmlns:inkscape="http://www.inkscape.org/namespaces/inkscape"
   width="548"
   height="550"
   viewBox="0 0 144.99166 145.52084"
   version="1.1"
   id="svg8"
   inkscape:version="0.92.4 (5da689c313, 2019-01-14)"
   sodipodi:docname="2.svg">
  <defs
     id="defs2" />
  <sodipodi:namedview
     id="base"
     pagecolor="#ffffff"
     bordercolor="#666666"
     borderopacity="1.0"
     inkscape:pageopacity="0.0"
     inkscape:pageshadow="2"
     inkscape:zoom="1.4"
     inkscape:cx="386.19741"
     inkscape:cy="277.0871"
     inkscape:document-units="mm"
     inkscape:current-layer="layer1"
     showgrid="false"
     units="px"
     inkscape:window-width="1920"
     inkscape:window-height="1017"
     inkscape:window-x="-8"
     inkscape:window-y="-8"
     inkscape:window-maximized="1">
    <inkscape:grid
       type="xygrid"
       id="grid3724" />
  </sodipodi:namedview>
  <metadata
     id="metadata5">
    <rdf:RDF>
      <cc:Work
         rdf:about="">
        <dc:format>image/svg+xml</dc:format>
        <dc:type
           rdf:resource="http://purl.org/dc/dcmitype/StillImage" />
        <dc:title></dc:title>
      </cc:Work>
    </rdf:RDF>
  </metadata>
  <g
     inkscape:label="圖層 1"
     inkscape:groupmode="layer"
     id="layer1"
     transform="translate(0,-151.47915)">
    <path
       style="fill:#000000;stroke:#000000;stroke-width:0.26458332px;stroke-linecap:butt;stroke-linejoin:miter;stroke-opacity:1;fill-opacity:0.95209581"
       d="m 62.933034,163.3854 c 6.992559,-1.5119 10.016371,0.37798 10.016371,0.37798 l 2.456844,5.29166 3.401785,3.02381 7.9375,-1.32291 2.078871,2.45684 -0.566965,1.13393 -6.803573,1.5119 -6.047618,1.88988 -3.401785,6.04762 -0.377976,2.07887 8.882438,-3.40178 7.9375,-3.40179 2.834823,0.56697 0.755951,3.21279 -3.77976,2.64584 -9.260417,3.77976 -10.961309,5.10268 -2.267857,6.42559 14.174107,-5.48065 11.717261,-3.2128 4.346725,-1.13393 6.04762,0.94494 4.15774,2.26786 -0.75595,1.88988 -2.83483,1.13393 -7.937496,-0.37798 -12.095237,3.40179 6.80357,4.53571 4.913691,4.34673 6.236612,5.29166 6.42559,3.96875 13.98512,5.66965 8.88244,2.83482 10.20536,3.59077 -1.51191,1.13393 -10.77232,2.45685 -4.53571,0.37797 -7.74852,2.07887 -13.79613,-13.41815 -4.53571,-5.10268 -11.339287,-10.77232 -6.614583,-6.61458 -8.693452,3.0238 -6.047618,2.26786 -3.96875,5.10268 -8.315476,19.0878 -4.157739,8.88244 -6.425594,6.80357 -11.90625,6.61458 c 0,0 -6.614584,1.51191 -7.559524,1.51191 -0.944941,0 -3.779762,0 -5.480655,-0.37798 -1.700893,-0.37798 -9.0714282,-3.77976 -9.0714282,-3.77976 0,0 -3.0238096,-2.07887 -1.3229166,-2.26786 1.7008927,-0.18899 6.6145828,1.51191 6.6145828,1.51191 l 5.102679,0.75595 c 0,0 6.425595,-1.51191 7.181547,-1.70089 0.755953,-0.18899 12.284226,-6.23661 12.284226,-6.23661 l 6.992559,-8.50447 6.803573,-10.58333 6.614583,-10.20535 -3.212799,1.88987 -3.212798,1.32292 c 0,0 -1.700892,-1.5119 -4.346726,-2.26786 -2.645833,-0.75595 -7.9375,-6.42559 -7.9375,-6.42559 0,0 -0.94494,0 0,-0.94494 0.944941,-0.94494 3.02381,-0.94494 3.02381,-0.94494 l 5.291666,1.88988 15.497024,-4.91369 2.645833,-5.66964 c 0,0 -3.77976,2.07886 -5.102677,1.88988 -1.322917,-0.18899 -3.96875,-1.32292 -5.10268,-2.07887 -1.133927,-0.75595 -6.236605,-6.99256 -6.236605,-6.99256 v -1.13393 l 5.291667,-0.18899 c 0,0 0.188986,2.07887 1.322917,1.88988 1.133927,-0.18899 3.023809,0 3.023809,0 l 9.449403,-2.26785 2.267857,-6.23661 -1.511903,-0.56696 h -4.346728 l -4.724702,-6.4256 4.535715,0.94494 6.614583,-0.94494 0.377976,-2.45685 -7.9375,-6.2366 z"
       id="path4582"
       inkscape:connector-curvature="0" />
    <path
       style="fill:#000000;stroke:#000000;stroke-width:0.26458332px;stroke-linecap:butt;stroke-linejoin:miter;stroke-opacity:1;fill-opacity:0.95209581"
       d="m 64.066964,215.54611 c 5.102678,2.26786 9.260417,-0.37797 9.260417,-0.37797 l 1.133927,-2.45685 -4.157736,-6.42559 6.614583,2.07887 3.590771,3.02381 -0.566962,3.0238 3.96875,-0.75595 2.267857,1.51191 -1.13393,3.40178 -7.181548,2.45685 -0.755951,8.31547 11.528274,-4.15773 8.126489,1.70089 1.322916,1.32292 -1.511906,3.96875 -6.803572,0.56696 -12.851188,4.15774 0.755952,13.41815 -1.889882,20.41072 1.889882,4.91369 0.566965,9.07143 -3.590775,-1.32292 -2.645833,-8.31548 0.944941,-7.9375 2.267855,-27.21428 c 0,0 0.188989,-1.13393 -0.566963,-1.32292 -0.755954,-0.18899 -4.346725,2.64583 -4.346725,2.64583 l -7.748514,-2.26785 -3.212798,-5.66965 14.363097,-3.21279 0.94494,-4.72471 -1.511905,-2.26785 -3.779761,3.40178 -3.023809,-0.56696 -5.291667,-7.37054 0.566963,-2.07886 z"
       id="path4584"
       inkscape:connector-curvature="0" />
  </g>
</svg>
