<?xml version="1.0" encoding="UTF-8" standalone="no"?>
<!-- Created with Inkscape (http://www.inkscape.org/) -->

<svg
   xmlns:dc="http://purl.org/dc/elements/1.1/"
   xmlns:cc="http://creativecommons.org/ns#"
   xmlns:rdf="http://www.w3.org/1999/02/22-rdf-syntax-ns#"
   xmlns:svg="http://www.w3.org/2000/svg"
   xmlns="http://www.w3.org/2000/svg"
   xmlns:sodipodi="http://sodipodi.sourceforge.net/DTD/sodipodi-0.dtd"
   xmlns:inkscape="http://www.inkscape.org/namespaces/inkscape"
   width="520"
   height="520"
   viewBox="0 0 520 520"
   version="1.1"
   id="svg8"
   inkscape:version="0.92.4 (5da689c313, 2019-01-14)"
   sodipodi:docname="8.svg">
  <defs
     id="defs2" />
  <sodipodi:namedview
     id="base"
     pagecolor="#ffffff"
     bordercolor="#666666"
     borderopacity="1.0"
     inkscape:pageopacity="0.0"
     inkscape:pageshadow="2"
     inkscape:zoom="1.5990005"
     inkscape:cx="197.7832"
     inkscape:cy="332.45494"
     inkscape:document-units="px"
     inkscape:current-layer="layer1"
     showgrid="false"
     units="px"
     inkscape:window-width="1920"
     inkscape:window-height="1001"
     inkscape:window-x="-9"
     inkscape:window-y="-9"
     inkscape:window-maximized="1" />
  <metadata
     id="metadata5">
    <rdf:RDF>
      <cc:Work
         rdf:about="">
        <dc:format>image/svg+xml</dc:format>
        <dc:type
           rdf:resource="http://purl.org/dc/dcmitype/StillImage" />
        <dc:title></dc:title>
      </cc:Work>
    </rdf:RDF>
  </metadata>
  <g
     inkscape:label="圖層 1"
     inkscape:groupmode="layer"
     id="layer1"
     transform="translate(0,-159.41665)">
    <path
       style="fill:#000000;stroke:none;stroke-width:1px;stroke-linecap:butt;stroke-linejoin:miter;stroke-opacity:1;fill-opacity:1"
       d="m 150.71916,283.54434 10.00625,-16.26016 10.00625,1.87618 8.13008,33.77109 10.00625,-13.75859 -3.12695,23.13945 v 25.64102 l -11.88243,9.38086 -8.75547,-7.50469 -23.13945,-36.27266 z"
       id="path847"
       inkscape:connector-curvature="0" />
    <path
       style="fill:#000000;stroke:none;stroke-width:1px;stroke-linecap:butt;stroke-linejoin:miter;stroke-opacity:1;fill-opacity:1"
       d="m 198.24885,262.28106 c 4.37773,-2.50156 8.75547,-31.26954 8.75547,-31.26954 0,0 16.26016,-8.13008 21.26328,-7.50468 5.00313,0.62539 15.63477,16.26015 15.63477,16.26015 l -10.63164,15.00938 -0.62539,37.52344 5.00312,46.9043 116.32267,-26.26641 53.7836,-3.75234 -5.00312,-45.02813 -18.76172,-37.52344 -6.8793,-12.50782 4.37773,-25.01562 6.25391,-8.75547 12.50781,1.25078 14.38399,20.0125 1.25078,18.76172 -8.75547,5.62852 c 0,0 28.14258,37.52344 28.76797,40.025 0.62539,2.50156 8.75547,17.51094 8.75547,20.0125 0,2.50157 -3.75234,21.88868 -3.75234,21.88868 l 21.88867,-8.13008 51.28204,23.76485 6.25391,18.13633 -0.62539,8.13007 -15.00938,7.50469 -11.25703,1.25078 -47.5297,-18.13633 h -11.25703 l -9.38086,100.06252 -1.25078,58.16133 7.50469,84.42774 8.13008,59.41212 4.37773,13.75859 -8.75547,22.51407 -16.88555,-13.7586 -20.0125,-36.89805 10.63164,-13.75859 c 0,0 8.13008,-61.91368 8.75547,-65.66602 0.62539,-3.75235 -8.13008,-95.68478 -6.2539,-98.18634 1.87617,-2.50157 1.87617,-23.76485 1.87617,-23.76485 l -11.25703,2.50156 -15.00938,-8.75547 -5.62852,-30.01875 2.50157,-10.63164 -12.50782,-15.63477 11.88242,-8.13008 c 0,0 8.75547,6.25391 11.25704,7.50469 2.50156,1.25078 13.1332,6.8793 13.1332,6.8793 l 0.62539,-36.27266 -70.04376,3.12695 -46.27891,8.13008 -56.91055,13.7586 c 0,0 -1.87617,26.2664 0,30.01875 1.87617,3.75234 10.00625,6.8793 10.00625,6.8793 l 16.88555,-8.13008 v 11.25703 l 5.62852,31.26953 -6.8793,16.26016 -16.26016,-0.62539 -15.00938,-13.1332 -6.2539,-21.88868 c 0,0 -25.64102,67.5422 -28.14258,68.16759 -2.50157,0.62539 -45.02813,46.9043 -45.02813,46.9043 l -61.913682,16.88555 c 0,0 -32.520316,-1.87617 -35.021879,-2.50156 -2.501563,-0.62539 -31.894925,-24.39024 -31.894925,-24.39024 0,0 26.891799,4.37773 31.269534,6.25391 4.377735,1.87617 40.025005,-3.75235 40.025005,-3.75235 0,0 42.526567,-20.0125 53.158207,-25.64102 10.63164,-5.62851 41.27579,-47.52969 41.27579,-47.52969 l 27.51719,-75.04688 -25.64102,7.50469 -40.6504,20.0125 -34.39648,26.26641 -17.510943,3.75234 -39.399614,-22.51406 c 0,0 -27.51719,-14.38399 -25.015628,-14.38399 2.501563,0 114.446495,-24.39024 114.446495,-24.39024 l 65.04063,-19.38711 1.87618,-8.75547 -6.8793,-53.15821 z"
       id="path849"
       inkscape:connector-curvature="0" />
    <path
       style="fill:#000000;stroke:none;stroke-width:1px;stroke-linecap:butt;stroke-linejoin:miter;stroke-opacity:1;fill-opacity:1"
       d="m 268.918,373.6006 6.2539,13.13321 -0.62539,22.51406 27.51719,26.8918 8.13008,-1.87617 3.75235,-23.13946 -11.88243,-25.64102 -19.38711,-16.26015 -8.75547,-2.50157 z"
       id="path851"
       inkscape:connector-curvature="0" />
    <path
       style="fill:#000000;stroke:none;stroke-width:1px;stroke-linecap:butt;stroke-linejoin:miter;stroke-opacity:1;fill-opacity:1"
       d="m 323.32699,359.21662 5.00312,20.0125 5.62852,36.89805 22.51406,12.50781 16.26016,-5.00312 -4.37773,-24.39024 -18.13633,-30.01875 -22.51407,-13.7586 z"
       id="path853"
       inkscape:connector-curvature="0" />
  </g>
</svg>
