<?xml version="1.0" encoding="UTF-8" standalone="no"?>
<!-- Created with Inkscape (http://www.inkscape.org/) -->

<svg
   xmlns:dc="http://purl.org/dc/elements/1.1/"
   xmlns:cc="http://creativecommons.org/ns#"
   xmlns:rdf="http://www.w3.org/1999/02/22-rdf-syntax-ns#"
   xmlns:svg="http://www.w3.org/2000/svg"
   xmlns="http://www.w3.org/2000/svg"
   xmlns:sodipodi="http://sodipodi.sourceforge.net/DTD/sodipodi-0.dtd"
   xmlns:inkscape="http://www.inkscape.org/namespaces/inkscape"
   width="520"
   height="520"
   viewBox="0 0 520 520"
   version="1.1"
   id="svg8"
   inkscape:version="0.92.4 (5da689c313, 2019-01-14)"
   sodipodi:docname="15.svg">
  <defs
     id="defs2" />
  <sodipodi:namedview
     id="base"
     pagecolor="#ffffff"
     bordercolor="#666666"
     borderopacity="1.0"
     inkscape:pageopacity="0.0"
     inkscape:pageshadow="2"
     inkscape:zoom="1.1306641"
     inkscape:cx="122.095"
     inkscape:cy="249.7679"
     inkscape:document-units="px"
     inkscape:current-layer="layer1"
     showgrid="false"
     units="px"
     inkscape:window-width="1920"
     inkscape:window-height="1001"
     inkscape:window-x="-9"
     inkscape:window-y="-9"
     inkscape:window-maximized="1"
     showguides="false" />
  <metadata
     id="metadata5">
    <rdf:RDF>
      <cc:Work
         rdf:about="">
        <dc:format>image/svg+xml</dc:format>
        <dc:type
           rdf:resource="http://purl.org/dc/dcmitype/StillImage" />
        <dc:title></dc:title>
      </cc:Work>
    </rdf:RDF>
  </metadata>
  <g
     inkscape:label="圖層 1"
     inkscape:groupmode="layer"
     id="layer1"
     transform="translate(0,-159.41665)">
    <path
       style="fill:#000000;fill-opacity:1;stroke:none;stroke-width:1px;stroke-linecap:butt;stroke-linejoin:miter;stroke-opacity:1"
       d="m 267.98411,294.68699 -47.75955,22.99534 -9.72879,6.19105 -15.91985,-2.65331 -13.26654,-28.30195 11.49767,-1.76887 29.70448,-8.74627 c 0,0 51.66363,-14.24907 56.08581,-17.78681 4.42218,-3.53775 21.22646,-22.1109 21.22646,-22.1109 6.10789,-5.715 12.51733,-7.81132 19.4576,-3.53775 l 7.07548,-0.88443 2.65331,21.22646 -6.19105,16.80428 -26.53308,24.76421 -32.72413,39.79962 17.68872,-7.95992 c 0,0 12.3821,0.88443 16.80428,1.76887 4.42218,0.88444 13.26654,0.88444 13.26654,0.88444 l -6.19105,16.80428 -34.493,8.84436 -26.53308,30.07082 2.6533,7.07549 23.87978,-14.15097 13.26654,-10.61324 c 10.22981,2.2358 18.64439,5.98428 23.87977,12.38211 l -25.64865,23.87977 -16.80428,39.79962 -5.30662,82.25255 21.02108,33.50127 55.04042,8.95166 84.02142,-11.49767 21.22646,-15.91985 11.49767,-36.26188 c 0,0 0,-39.79962 3.53775,-38.03074 3.53774,1.76887 20.13663,48.90302 20.13663,48.90302 4.60324,4.60324 14.10856,19.83518 16.12524,24.50516 2.35214,5.44681 4.42218,32.72414 4.42218,32.72414 l -21.22646,11.49766 -83.13699,9.7288 -56.6039,0.88444 -53.06616,-14.15098 -35.37744,-28.30195 -3.53774,-44.2218 c -4.22989,-17.85743 0.7075,-43.63218 0.88443,-65.44827 l 18.57316,-43.33736 -21.22647,-3.53774 -15.03541,11.49766 c 0,0 -45.99067,54.83504 -47.75954,59.25722 -1.76887,4.42218 -60.14165,67.21713 -60.14165,67.21713 l -43.337364,53.9506 -25.648644,7.95992 c 0,0 -10.613232,0 -9.728796,-4.42218 0.884436,-4.42218 12.382104,-41.56849 12.382104,-41.56849 l 12.382104,-59.25721 10.613232,42.45293 4.42218,4.42218 c 0,0 22.995334,-35.37744 26.533084,-35.37744 3.53774,0 49.52841,-41.5685 49.52841,-41.5685 l 53.06616,-58.37277 36.26188,-38.03075 -23.87977,7.07549 c -21.52128,10.90804 -43.04255,25.86785 -64.56383,32.72413 l -13.26654,17.68872 -16.80429,2.65331 -22.99533,-13.26654 2.65331,-17.68872 h 7.07548 c 3.53775,0 15.03542,3.75885 15.03542,3.75885 l 33.60856,-17.02539 -22.99533,-37.14631 c -5.07865,-10.12936 -11.94462,-16.55121 -11.49767,-37.14632 l 3.53774,-19.45759 32.72414,26.53308 c 8.26417,14.29995 11.79621,27.81122 16.80428,41.56849 l 1.56348,18.67125 c 3.25746,-3.25746 47.58274,-20.94236 50.61824,-23.09343 2.85318,-2.39659 23.34969,-56.84733 34.49301,-61.02608 z"
       id="path999"
       inkscape:connector-curvature="0"
       sodipodi:nodetypes="ccccccccccccccccsccccccccccccccccccscccccccccccscccsccccscccccccccscccccccccc" />
  </g>
</svg>
