<?xml version="1.0" encoding="UTF-8" standalone="no"?>
<!-- Created with Inkscape (http://www.inkscape.org/) -->

<svg
   xmlns:dc="http://purl.org/dc/elements/1.1/"
   xmlns:cc="http://creativecommons.org/ns#"
   xmlns:rdf="http://www.w3.org/1999/02/22-rdf-syntax-ns#"
   xmlns:svg="http://www.w3.org/2000/svg"
   xmlns="http://www.w3.org/2000/svg"
   xmlns:sodipodi="http://sodipodi.sourceforge.net/DTD/sodipodi-0.dtd"
   xmlns:inkscape="http://www.inkscape.org/namespaces/inkscape"
   width="520"
   height="520"
   viewBox="0 0 520 520"
   version="1.1"
   id="svg8"
   inkscape:version="0.92.4 (5da689c313, 2019-01-14)"
   sodipodi:docname="12.svg">
  <defs
     id="defs2" />
  <sodipodi:namedview
     id="base"
     pagecolor="#ffffff"
     bordercolor="#666666"
     borderopacity="1.0"
     inkscape:pageopacity="0.0"
     inkscape:pageshadow="2"
     inkscape:zoom="1.5990005"
     inkscape:cx="276.30798"
     inkscape:cy="269.49389"
     inkscape:document-units="px"
     inkscape:current-layer="layer1"
     showgrid="false"
     units="px"
     inkscape:window-width="1920"
     inkscape:window-height="1001"
     inkscape:window-x="-9"
     inkscape:window-y="-9"
     inkscape:window-maximized="1"
     showguides="false" />
  <metadata
     id="metadata5">
    <rdf:RDF>
      <cc:Work
         rdf:about="">
        <dc:format>image/svg+xml</dc:format>
        <dc:type
           rdf:resource="http://purl.org/dc/dcmitype/StillImage" />
        <dc:title></dc:title>
      </cc:Work>
    </rdf:RDF>
  </metadata>
  <g
     inkscape:label="圖層 1"
     inkscape:groupmode="layer"
     id="layer1"
     transform="translate(0,-159.41665)">
    <path
       style="fill:#000000;stroke:#000000;stroke-width:1px;stroke-linecap:butt;stroke-linejoin:miter;stroke-opacity:1;fill-opacity:1"
       d="m 137.08758,293.80255 -0.88444,-16.80428 11.49767,-7.07549 7.95993,7.07549 38.91518,-10.61323 -7.95992,9.72879 -8.84436,5.30662 -9.7288,27.41752 -7.07549,8.84436 -14.15097,-15.03542 z"
       id="path940"
       inkscape:connector-curvature="0" />
    <path
       style="fill:#000000;fill-opacity:1;stroke:#000000;stroke-width:1px;stroke-linecap:butt;stroke-linejoin:miter;stroke-opacity:1"
       d="m 144.16307,350.40646 7.95992,4.42218 34.49301,-15.03541 12.3821,-4.42218 -30.95526,38.91518 -14.15098,15.03541 -14.15097,-11.49767 -3.53775,-14.15097 c -1.50695,-5.98228 2.89827,-9.74749 7.95993,-13.26654 z"
       id="path942"
       inkscape:connector-curvature="0"
       sodipodi:nodetypes="ccccccccc" />
    <path
       style="fill:#000000;stroke:#000000;stroke-width:1px;stroke-linecap:butt;stroke-linejoin:miter;stroke-opacity:1;fill-opacity:1"
       d="m 218.45569,319.4512 c 0,0 9.7288,0 13.26654,0 3.53775,0 17.68872,2.65331 17.68872,2.65331 l 5.30662,18.57315 -7.95993,8.84436 -19.45759,-10.61323 z"
       id="path944"
       inkscape:connector-curvature="0" />
    <path
       style="fill:#000000;fill-opacity:1;stroke:#000000;stroke-width:1px;stroke-linecap:butt;stroke-linejoin:miter;stroke-opacity:1"
       d="m 85.790292,280.53601 c 10.908043,3.21001 21.816088,7.85852 32.724128,17.68872 l 10.61324,36.26188 5.30661,74.29262 0.88444,27.41752 69.87044,-30.95526 c 0,0 28.30195,-30.95526 31.8397,-31.8397 3.53774,-0.88443 43.33736,-32.72413 43.33736,-32.72413 l 11.49767,-63.67939 -7.95992,-5.30662 -32.72414,15.91985 -21.22646,-11.49767 -7.07549,-19.45759 44.2218,-15.91985 14.15098,-5.30661 -3.53775,-23.87977 15.91985,1.76887 33.45682,50.93094 16.0716,17.17063 -8.84436,13.26654 -10.61323,1.76887 -45.57068,133.80888 -10.14879,24.50517 -13.26654,-4.42218 c -4.12737,-9.13917 -6.93355,-10.97661 -12.69481,-29.91908 -2.47103,-9.33542 3.14708,-15.43519 4.73488,-23.14708 l 6.19106,-14.15098 15.03541,16.80428 14.15097,-44.2218 -7.95992,4.42218 -21.22646,12.38211 -9.7288,13.26654 c 0,0 -36.93172,38.23614 -37.81615,41.77388 -0.88444,3.53775 -35.59204,53.74521 -35.59204,53.74521 0,0 -38.03075,65.44826 -41.56849,67.21713 -3.53774,1.76887 -41.568492,41.56849 -41.568492,41.56849 l -8.84436,17.68872 -6.191052,7.07549 -30.95526,8.84436 -6.191052,-15.91985 6.191052,-22.99533 8.84436,-8.84436 24.764208,-28.30195 11.497668,-7.07549 -1.768872,24.76421 h 4.42218 l 28.30195,-26.53308 c 0,0 36.26188,-51.29729 38.03075,-55.71947 1.76887,-4.42218 36.26188,-51.29729 36.26188,-51.29729 l -51.29729,22.99534 -41.568494,26.53308 -4.42218,11.49766 -13.26654,-5.30661 -12.382104,-19.45759 6.191052,-10.61324 1.768872,-7.95992 16.804284,0.88444 30.07082,-7.95993 c 0,0 -13.26654,-25.64864 -13.26654,-30.95526 0,-5.30661 4.42218,-25.64864 4.42218,-25.64864 l -11.49766,-48.64398 c 0,0 -13.266544,-25.64865 -13.266544,-29.18639 0,-3.53774 -3.537744,-27.41752 -3.537744,-27.41752 z"
       id="path946"
       inkscape:connector-curvature="0"
       sodipodi:nodetypes="ccccccccccccccccccccccccccccccccccsccccccccccccsccccccccccsccsc" />
    <path
       style="fill:#000000;fill-opacity:1;stroke:#000000;stroke-width:1px;stroke-linecap:butt;stroke-linejoin:miter;stroke-opacity:1"
       d="m 193.01244,467.6701 13.06115,-9.36245 0.51809,-10.61323 11.86401,-6.19105 h 9.7288 l 5.98566,6.13739 c 17.60436,7.3059 13.0481,16.76148 17.89411,24.81787 l -18.57316,15.91984 -6.19105,60.14165 7.95993,28.30195 c 0,0 32.74653,8.9994 44.231,10.76498 4.37083,0.67195 53.94139,-1.92062 56.5947,-1.92062 2.65331,0 30.95526,-0.88443 30.95526,-0.88443 l 37.14631,-8.84436 20.86012,-13.68654 3.90409,-45.57067 1.76887,-15.91985 c 0,0 15.91985,40.68405 17.68872,45.10623 1.76887,4.42218 21.90551,24.39787 21.90551,24.39787 l 6.0301,11.33671 c 0,0 -3.1714,19.98489 -13.78463,19.98489 -10.61323,0 -76.0615,6.19105 -76.0615,6.19105 L 348.46778,597.1641 c 0,0 -17.96799,2.80936 -50.41285,7.07549 -32.72413,4.30286 -67.21713,-7.71359 -67.21713,-8.84436 0,0 -28.30196,-28.30195 -26.53308,-32.72413 1.76887,-4.42218 1.76887,-46.87511 1.76887,-46.87511 l 3.63584,-31.99144 -0.31269,-12.17671 z"
       id="path948"
       inkscape:connector-curvature="0"
       sodipodi:nodetypes="ccccccccccsscccccsccsccscccccc" />
  </g>
</svg>
