<?xml version="1.0" encoding="UTF-8" standalone="no"?>
<!-- Created with Inkscape (http://www.inkscape.org/) -->

<svg
   xmlns:dc="http://purl.org/dc/elements/1.1/"
   xmlns:cc="http://creativecommons.org/ns#"
   xmlns:rdf="http://www.w3.org/1999/02/22-rdf-syntax-ns#"
   xmlns:svg="http://www.w3.org/2000/svg"
   xmlns="http://www.w3.org/2000/svg"
   xmlns:sodipodi="http://sodipodi.sourceforge.net/DTD/sodipodi-0.dtd"
   xmlns:inkscape="http://www.inkscape.org/namespaces/inkscape"
   width="548"
   height="550"
   viewBox="0 0 144.99166 145.52084"
   version="1.1"
   id="svg8"
   inkscape:version="0.92.4 (5da689c313, 2019-01-14)"
   sodipodi:docname="4.svg">
  <defs
     id="defs2" />
  <sodipodi:namedview
     id="base"
     pagecolor="#ffffff"
     bordercolor="#666666"
     borderopacity="1.0"
     inkscape:pageopacity="0.0"
     inkscape:pageshadow="2"
     inkscape:zoom="1.4"
     inkscape:cx="151.29776"
     inkscape:cy="247.86776"
     inkscape:document-units="mm"
     inkscape:current-layer="layer1"
     showgrid="false"
     units="px"
     inkscape:window-width="1920"
     inkscape:window-height="1017"
     inkscape:window-x="-8"
     inkscape:window-y="-8"
     inkscape:window-maximized="1">
    <inkscape:grid
       type="xygrid"
       id="grid3724" />
  </sodipodi:namedview>
  <metadata
     id="metadata5">
    <rdf:RDF>
      <cc:Work
         rdf:about="">
        <dc:format>image/svg+xml</dc:format>
        <dc:type
           rdf:resource="http://purl.org/dc/dcmitype/StillImage" />
        <dc:title></dc:title>
      </cc:Work>
    </rdf:RDF>
  </metadata>
  <g
     inkscape:label="圖層 1"
     inkscape:groupmode="layer"
     id="layer1"
     transform="translate(0,-151.47915)">
    <path
       style="fill:#000000;stroke:#000000;stroke-width:0.26458332px;stroke-linecap:butt;stroke-linejoin:miter;stroke-opacity:1;fill-opacity:0.95209581"
       d="m 37.608631,176.80355 3.023809,4.15774 -1.13393,7.37054 -9.071427,14.55208 c 0,0 -8.88244,10.39435 -10.583333,11.52827 -1.700893,1.13393 -9.827381,10.01637 -9.827381,10.01637 l -7.5595238,2.45685 -1.51190473,3.59077 3.77976193,1.88988 14.1741066,-8.50446 12.662201,-14.55208 13.796132,-17.76488 2.267857,-6.23661 -3.212798,-6.04762 -5.858629,-4.91369 -1.511906,-0.75595 z"
       id="path4627"
       inkscape:connector-curvature="0" />
    <path
       style="fill:#000000;stroke:#000000;stroke-width:0.26458332px;stroke-linecap:butt;stroke-linejoin:miter;stroke-opacity:1;fill-opacity:0.95209581"
       d="m 68.980655,170.94492 4.346726,-0.18898 3.590774,4.15773 0.755952,3.02381 6.803569,-3.02381 4.913691,-5.29166 1.889882,-2.07887 c 0,0 0.377976,0.75595 0.377976,-0.75595 0,-1.51191 -1.511904,-3.77977 -1.511904,-3.77977 l 2.83482,-1.70089 5.291667,3.59077 2.456842,5.29167 -2.834818,2.26786 c 0,0 -0.755952,-0.37798 -1.511906,-0.18899 -0.755951,0.18899 -8.126486,3.59077 -8.126486,3.59077 l -9.260417,3.40179 -2.078868,0.37798 c 0,0 -0.944941,1.32291 -1.322917,2.07886 -0.377978,0.75596 -12.284228,2.07887 -12.284228,2.07887 l -0.566962,-3.77976 c 0,0 2.078868,-0.37797 2.456844,-1.13393 0.377975,-0.75595 4.91369,-5.29166 4.91369,-5.29166 l -2.456844,-1.13393 z"
       id="path4629"
       inkscape:connector-curvature="0" />
    <path
       style="fill:#000000;stroke:#000000;stroke-width:0.26458332px;stroke-linecap:butt;stroke-linejoin:miter;stroke-opacity:1;fill-opacity:0.95209581"
       d="m 52.53869,193.24552 39.49851,-12.28423 3.401788,-1.70089 2.456844,-1.51191 2.078868,-1.88988 9.26042,3.2128 1.5119,2.26786 -2.26785,1.70089 -12.095244,0.75595 -10.583333,2.07887 -13.418153,4.15774 -2.456847,0.94494 c 0,0 -1.889879,0.75595 0.566965,0.94494 2.456847,0.18899 10.016368,1.32292 10.016368,1.32292 l 3.212799,3.59077 10.205357,-4.91369 3.779761,1.32292 -0.188987,3.2128 -3.023809,0.56696 -10.772322,3.2128 0.566965,4.7247 c 0,0 6.992559,-3.02381 8.126486,-3.02381 1.13393,0 6.803573,0 6.803573,0 0,0 2.645831,0.94494 2.456841,1.88988 -0.18898,0.94494 -1.889876,2.45685 -1.889876,2.45685 l -17.00893,3.21279 -11.90625,4.91369 c 0,0 -12.284226,6.23661 -13.040177,6.23661 -0.755952,0 -5.10268,-1.88988 -5.10268,-1.88988 l -1.133928,-2.07887 0.944941,-0.94494 1.889882,0.56697 20.599701,-7.74851 1.322917,-0.37798 0.566965,-1.51191 -0.566965,-1.88988 -1.13393,-1.5119 -9.260417,3.96875 c 0,0 -1.700892,2.83482 -2.456844,2.64583 -0.755951,-0.18899 -4.724701,-1.32291 -4.724701,-1.32291 l -1.322917,-1.88989 c 0,0 0,-2.45684 0.755952,-2.45684 0.755951,0 16.252975,-4.34673 16.252975,-4.34673 l 0.377976,-1.5119 -3.401785,-3.77977 -3.96875,-2.45684 -10.016368,5.85863 -4.724704,-2.26786 -1.322917,-1.32291 z"
       id="path4631"
       inkscape:connector-curvature="0" />
    <path
       style="fill:#000000;stroke:#000000;stroke-width:0.26458332px;stroke-linecap:butt;stroke-linejoin:miter;stroke-opacity:1;fill-opacity:0.95209581"
       d="m 51.782739,228.20832 29.104166,-11.71726 5.102677,-1.32292 5.669643,1.88988 6.425596,5.66964 2.456849,2.83482 -3.212803,0.94494 0.755954,3.77976 6.803569,-7.37053 h 1.70089 l -0.18898,3.59077 -6.614586,8.12649 7.181546,13.79613 c 0,0 4.7247,-9.26042 4.91369,-10.01637 0.18899,-0.75595 1.13393,-5.10268 1.13393,-5.10268 l 0.18899,-3.02381 -0.94494,-2.45684 1.5119,-0.75595 c 0,0 1.88988,2.64583 2.07887,3.77976 0.18899,1.13393 0.56697,8.50446 0.56697,8.50446 l -4.53572,10.39435 -2.26786,2.83482 18.52084,19.0878 5.10268,3.40178 4.34672,3.96875 -3.40178,3.2128 -5.29167,-0.75595 c 0,0 -5.85863,-6.23661 -6.80357,-6.61459 -0.94494,-0.37797 -10.20536,-11.52827 -10.20536,-11.52827 l -4.91369,-7.37053 -2.83482,2.45684 -7.370535,6.4256 -5.858632,1.5119 -7.748513,-3.02381 -2.078869,-4.53571 3.96875,0.94494 3.212799,1.13393 15.49702,-8.12649 0.18899,-0.94494 -6.992559,-13.22917 -1.322916,-0.94494 -10.016369,6.99256 c 0,0 -11.528274,4.15774 -11.717263,5.29167 -0.188986,1.13392 2.267858,5.29166 2.267858,5.29166 0,0 -1.133928,10.20536 -1.511904,11.71726 -0.377975,1.51191 -2.267857,5.48066 -2.267857,5.48066 l -3.401785,1.88988 -10.016371,-13.79613 0.188989,-0.75595 10.205358,2.07887 1.889879,-4.15774 -0.188987,-5.29167 -1.13393,-1.13393 -14.74107,7.18155 -10.016368,4.91369 -4.346728,-1.13393 0.188989,-4.91369 1.511906,-2.07887 1.133927,1.32292 1.889882,0.94494 24.190476,-8.88244 1.133927,-2.64583 -1.889879,-7.37054 -0.944941,-0.75595 -13.229166,6.61458 -4.913691,-1.32292 -5.669643,-3.96875 7.370535,-0.56696 15.497024,-5.85863 0.188987,-1.32292 -2.83482,-2.83482 c 0,0 -0.188989,-0.37797 -1.13393,-0.37797 -0.944938,0 -7.748511,3.40178 -7.748511,3.40178 l -4.157739,-2.26786 z"
       id="path4633"
       inkscape:connector-curvature="0" />
    <path
       style="fill:#fcfcfc;stroke:#000000;stroke-width:0.26458332px;stroke-linecap:butt;stroke-linejoin:miter;stroke-opacity:1;fill-opacity:0.95209581"
       d="m 74.083332,229.72022 16.898222,-6.51534 0.100226,-0.78838 c 0.137073,-2.7037 -1.169797,-4.03895 -2.902624,-4.24945 l -2.000585,0.78085 -19.858165,7.71707 z"
       id="path4637"
       inkscape:connector-curvature="0"
       sodipodi:nodetypes="ccccccc" />
    <path
       style="fill:#000000;stroke:#000000;stroke-width:0.26458332px;stroke-linecap:butt;stroke-linejoin:miter;stroke-opacity:1;fill-opacity:0.95209581"
       d="m 35.279578,208.2665 -0.53454,24.32153 c 0,0 -0.133636,14.83345 -0.534538,15.63526 -0.400904,0.80181 -2.806332,15.23437 -2.806332,15.23437 l 2.939965,9.48806 3.474506,2.00452 1.737251,-4.14267 -0.53454,-10.95805 c 0,0 -0.668173,-17.63979 -0.801809,-18.57524 -0.133633,-0.93544 0.53454,-11.09168 0.400905,-12.16076 -0.133634,-1.06908 2.53906,-14.43255 2.53906,-14.43255 l -3.474503,-6.1472 -1.603618,-1.20271 z"
       id="path4639"
       inkscape:connector-curvature="0" />
    <path
       style="fill:#ffffff;stroke:#000000;stroke-width:0.26458332px;stroke-linecap:butt;stroke-linejoin:miter;stroke-opacity:1;fill-opacity:0.95209581"
       d="m 88.733483,228.57898 2.939963,-2.00452 1.870887,1.20271 1.737252,4.40995 -1.069078,2.00452 -20.446119,12.16077 -1.737251,-7.08265 1.336346,-4.81085 z"
       id="path4641"
       inkscape:connector-curvature="0" />
    <path
       style="fill:#000000;fill-opacity:0.95209578;stroke:#000000;stroke-width:0.26458332px;stroke-linecap:butt;stroke-linejoin:miter;stroke-opacity:1"
       d="m 107.70962,206.12834 3.60814,1.20272 7.08264,7.48354 2.93997,2.40543 4.67721,1.87088 2.40543,-0.66817 1.06907,-2.27179 -2.16918,-4.37892 -2.50803,-4.44097 -2.6727,-0.40091 -5.06191,-0.76405 -5.62887,-0.83956 z"
       id="path4643"
       inkscape:connector-curvature="0"
       sodipodi:nodetypes="ccccccccccccc" />
  </g>
</svg>
