<?xml version="1.0" encoding="UTF-8" standalone="no"?>
<!-- Created with Inkscape (http://www.inkscape.org/) -->

<svg
   xmlns:dc="http://purl.org/dc/elements/1.1/"
   xmlns:cc="http://creativecommons.org/ns#"
   xmlns:rdf="http://www.w3.org/1999/02/22-rdf-syntax-ns#"
   xmlns:svg="http://www.w3.org/2000/svg"
   xmlns="http://www.w3.org/2000/svg"
   xmlns:sodipodi="http://sodipodi.sourceforge.net/DTD/sodipodi-0.dtd"
   xmlns:inkscape="http://www.inkscape.org/namespaces/inkscape"
   width="520"
   height="520"
   viewBox="0 0 520 520"
   version="1.1"
   id="svg8"
   inkscape:version="0.92.4 (5da689c313, 2019-01-14)"
   sodipodi:docname="17.svg">
  <defs
     id="defs2" />
  <sodipodi:namedview
     id="base"
     pagecolor="#ffffff"
     bordercolor="#666666"
     borderopacity="1.0"
     inkscape:pageopacity="0.0"
     inkscape:pageshadow="2"
     inkscape:zoom="1.1306641"
     inkscape:cx="264.55607"
     inkscape:cy="264.35765"
     inkscape:document-units="px"
     inkscape:current-layer="layer1"
     showgrid="false"
     units="px"
     inkscape:window-width="1920"
     inkscape:window-height="1001"
     inkscape:window-x="-9"
     inkscape:window-y="-9"
     inkscape:window-maximized="1"
     showguides="false" />
  <metadata
     id="metadata5">
    <rdf:RDF>
      <cc:Work
         rdf:about="">
        <dc:format>image/svg+xml</dc:format>
        <dc:type
           rdf:resource="http://purl.org/dc/dcmitype/StillImage" />
        <dc:title></dc:title>
      </cc:Work>
    </rdf:RDF>
  </metadata>
  <g
     inkscape:label="圖層 1"
     inkscape:groupmode="layer"
     id="layer1"
     transform="translate(0,-159.41665)">
    <path
       style="fill:#000000;stroke:none;stroke-width:1px;stroke-linecap:butt;stroke-linejoin:miter;stroke-opacity:1;fill-opacity:1"
       d="m 123.20197,296.05216 23.76484,35.64726 -15.63476,42.52657 c 0,0 -5.62852,78.17384 -5.62852,81.30079 0,3.12696 0.62539,38.14883 0.62539,38.14883 0,0 8.75547,51.90743 10.00625,58.78673 1.25078,6.8793 4.37774,16.88555 4.37774,16.88555 l -7.50469,12.50781 -9.38086,-6.25391 -17.51094,-38.77422 7.50469,-16.88555 v -41.27578 l 0.62539,-95.05939 5.00312,-70.04376 -3.12695,-6.87929 z"
       id="path1033"
       inkscape:connector-curvature="0" />
    <path
       style="fill:#000000;fill-opacity:1;stroke:none;stroke-width:1px;stroke-linecap:butt;stroke-linejoin:miter;stroke-opacity:1"
       d="m 145.71603,277.29043 14.56716,2.02141 116.1395,-23.91008 31.26953,-5.62852 16.26016,-1.87617 c 0,0 5.62852,-10.00625 8.75547,-9.38086 3.12695,0.62539 31.26953,9.38086 31.26953,9.38086 l 9.38086,20.0125 18.13633,22.51407 1.25079,10.00625 -11.25704,11.25703 v 53.7836 l 0.62539,65.66602 9.38086,-3.12695 19.38712,14.38399 -9.38087,23.76484 -16.26015,6.25391 7.50469,73.7961 -7.50469,23.13946 -9.38086,50.65664 -21.88868,-19.38711 -9.38086,-19.38711 1.25078,-8.13008 -6.87929,-35.02188 16.26015,5.00313 v -89.43087 l -15.63476,0.62539 -11.88243,-13.1332 c 0,0 -2.50156,-10.00626 -0.62539,-13.13321 1.87617,-3.12695 23.13946,-8.75547 23.13946,-18.13633 0,-9.38086 -2.50156,-85.67852 -2.50156,-85.67852 l -3.12696,-34.39649 -13.1332,-16.26016 -49.40587,6.8793 -50.03125,13.75859 -35.02188,15.63477 -16.88555,11.25703 -16.26016,-23.13945 -7.69437,-9.01452 z"
       id="path1035"
       inkscape:connector-curvature="0"
       sodipodi:nodetypes="cccccsccccccccccccccccccccccsscccccccccc" />
    <path
       style="fill:#000000;fill-opacity:1;stroke:none;stroke-width:1px;stroke-linecap:butt;stroke-linejoin:miter;stroke-opacity:1"
       d="m 179.48713,334.82638 c 0.14032,-0.11226 5.60152,8.65198 11.88242,10.63164 8.35051,2.63197 64.41524,-21.26328 64.41524,-21.26328 l 14.38399,-8.13008 33.14571,5.62851 8.13008,13.7586 c 0,0 -11.88243,10.00625 -15.00938,10.00625 -3.12696,0 -46.9043,18.13633 -51.28204,18.13633 -4.37773,0 -18.76172,7.50469 -21.88867,7.50469 -3.12696,0 -19.38711,-1.25078 -19.38711,-1.25078 L 190.74416,357.96583 179.48713,346.7088 Z"
       id="path1037"
       inkscape:connector-curvature="0"
       sodipodi:nodetypes="csccccssscccc" />
    <path
       style="fill:#000000;fill-opacity:1;stroke:none;stroke-width:1px;stroke-linecap:butt;stroke-linejoin:miter;stroke-opacity:1"
       d="m 162.60158,395.48928 c 3.12695,0 23.76485,16.26015 25.01563,20.0125 1.25078,3.75234 11.25703,14.38398 11.25703,14.38398 v 32.52032 l 8.75547,8.13008 33.14571,-12.50782 18.13633,-5.62851 4.37773,-22.51407 -6.8793,-5.62851 -23.76484,9.38086 -8.13008,1.87617 -15.00938,-22.51407 -8.75547,-22.51406 16.26016,8.75547 35.64727,-9.38086 17.3546,-3.2833 1.40712,-12.97686 8.13008,-3.12695 20.0125,7.50469 10.63164,13.1332 -1.25078,6.8793 -12.50781,19.38711 c 0,0 -10.63164,34.39649 -10.63164,36.89805 0,2.50156 17.51094,3.75234 18.13633,6.25391 0.62539,2.50156 3.12695,16.88555 3.12695,16.88555 l -13.7586,7.50468 -18.13633,-3.12695 -54.40899,11.25703 -11.88242,2.50157 c 0,0 1.25078,18.13633 3.75235,18.76172 2.50156,0.62539 -10.00626,3.12695 -10.00626,3.12695 l -16.88554,-15.63477 -7.50469,-25.01562 c 0,0 -16.26016,-52.53282 -16.26016,-55.03439 0,-2.50156 -1.87617,-26.8918 -1.87617,-26.8918 z"
       id="path1039"
       inkscape:connector-curvature="0"
       sodipodi:nodetypes="csccccccccccccccccccccsscccccscccscc" />
  </g>
</svg>
