<?xml version="1.0" encoding="UTF-8" standalone="no"?>
<!-- Created with Inkscape (http://www.inkscape.org/) -->

<svg
   xmlns:dc="http://purl.org/dc/elements/1.1/"
   xmlns:cc="http://creativecommons.org/ns#"
   xmlns:rdf="http://www.w3.org/1999/02/22-rdf-syntax-ns#"
   xmlns:svg="http://www.w3.org/2000/svg"
   xmlns="http://www.w3.org/2000/svg"
   xmlns:sodipodi="http://sodipodi.sourceforge.net/DTD/sodipodi-0.dtd"
   xmlns:inkscape="http://www.inkscape.org/namespaces/inkscape"
   width="520"
   height="520"
   viewBox="0 0 520 520"
   version="1.1"
   id="svg8"
   sodipodi:docname="6.svg"
   inkscape:version="0.92.4 (5da689c313, 2019-01-14)">
  <defs
     id="defs2" />
  <sodipodi:namedview
     id="base"
     pagecolor="#ffffff"
     bordercolor="#666666"
     borderopacity="1.0"
     inkscape:pageopacity="0.0"
     inkscape:pageshadow="2"
     inkscape:zoom="1.5990005"
     inkscape:cx="236.31327"
     inkscape:cy="256.82676"
     inkscape:document-units="px"
     inkscape:current-layer="layer1"
     showgrid="false"
     units="px"
     inkscape:window-width="1920"
     inkscape:window-height="1001"
     inkscape:window-x="-9"
     inkscape:window-y="-9"
     inkscape:window-maximized="1" />
  <metadata
     id="metadata5">
    <rdf:RDF>
      <cc:Work
         rdf:about="">
        <dc:format>image/svg+xml</dc:format>
        <dc:type
           rdf:resource="http://purl.org/dc/dcmitype/StillImage" />
        <dc:title></dc:title>
      </cc:Work>
    </rdf:RDF>
  </metadata>
  <g
     inkscape:label="圖層 1"
     inkscape:groupmode="layer"
     id="layer1"
     transform="translate(0,-159.41665)">
    <path
       style="fill:#000000;fill-opacity:1;stroke:#000000;stroke-width:1px;stroke-linecap:butt;stroke-linejoin:miter;stroke-opacity:1"
       d="m 116.30333,300.43582 7.07549,-26.53308 12.82432,1.32666 26.09087,54.83503 0.88443,5.74883 -27.85973,77.38815 41.12627,-16.36206 3.97996,-6.19105 -9.17602,-32.50303 3.86941,-12.16099 12.3821,-7.51771 c 4.85557,0.66956 10.06968,0.71168 13.81931,3.31664 l 7.40716,13.48765 0.44221,18.57315 -3.31663,30.95526 -30.95526,70.31266 25.86975,19.4576 4.42218,-23.87978 22.55312,54.39282 9.7288,15.91985 -1.76888,11.49766 -15.03541,-2.21109 -25.64864,-32.72413 -23.43756,-30.07082 -7.5177,1.76887 c 0,0 -17.68872,17.2465 -30.07083,22.99534 -12.3821,5.74883 -49.528412,18.57315 -49.528412,18.57315 l -27.859734,-6.19105 -7.075488,-17.2465 6.191052,-9.28658 11.497668,15.47763 40.684054,-15.03541 c 0,0 26.9753,-12.82432 26.9753,-14.5932 0,-1.76887 12.82432,-14.15097 12.82432,-14.15097 l -25.53808,-21.66869 -6.30161,-5.30661 -40.241842,20.34203 -32.281914,18.13094 c 0,0 -12.382104,2.21109 -10.613232,2.21109 1.768872,0 -20.784246,-10.17102 -20.784246,-10.17102 0,0 -12.382104,-8.84436 -10.613232,-9.72879 1.768872,-0.88444 6.63327,-8.84436 6.63327,-8.84436 l 29.628606,-6.19106 41.126274,-14.15097 34.050786,-12.38211 3.53774,-3.53774 c 0,0 11.90176,-38.65352 12.21446,-41.15508 0.31269,-2.50157 5.94121,-28.14259 5.94121,-28.14259 l 2.18887,-10.94433 -2.81426,-22.20137 -8.13008,-9.06817 -4.37774,-5.00312 z"
       id="path21"
       inkscape:connector-curvature="0"
       sodipodi:nodetypes="cccccccccccccccccccccccccsccccccscccccscccccccccccccc" />
    <path
       style="fill:#ffffff;stroke:#000000;stroke-width:1px;stroke-linecap:butt;stroke-linejoin:miter;stroke-opacity:1;fill-opacity:1"
       d="m 135.39709,428.00959 c 0,0 31.58223,-17.19824 34.70918,-17.82363 3.12695,-0.62539 5.62851,0.62539 5.62851,0.62539 l -14.38398,41.90117 -4.06504,-1.87617 z"
       id="path23"
       inkscape:connector-curvature="0" />
    <path
       style="fill:#1f1f1f;stroke:#000000;stroke-width:1px;stroke-linecap:butt;stroke-linejoin:miter;stroke-opacity:1;fill-opacity:1"
       d="m 252.03245,395.48928 3.75234,-3.43965 21.57598,0.62539 61.28829,-17.82364 0.3127,-24.39023 -8.75547,-45.02813 -2.81426,-17.82364 -3.12696,-8.13008 -17.82363,-3.43965 -2.50156,-2.81426 11.88242,-12.50781 4.37773,-3.75234 18.13633,5.94121 19.38712,6.25391 8.13008,8.44277 9.38086,22.20137 -2.50157,11.56973 -8.44277,25.32832 1.25078,24.39024 c 0,0 4.69043,2.18886 6.25391,2.50156 1.56347,0.3127 58.78672,-18.76172 60.0375,-19.38711 1.25078,-0.62539 1.25078,-8.44278 1.25078,-8.44278 l 10.63165,-3.12695 c 0,0 25.64102,5.31582 26.8918,6.25391 1.25078,0.93808 15.32207,5.00312 15.32207,5.00312 l 6.5666,8.75547 -4.37773,4.69043 -13.4459,4.69043 h -18.76172 l -17.82364,1.87618 -20.0125,4.06503 -22.20137,5.94122 -30.64415,10.63164 -3.43964,6.5666 6.2539,11.88242 -1.87617,38.77423 c 0,0 5.94121,1.87617 7.19199,0.62539 1.25079,-1.25078 47.5297,-16.57286 47.5297,-16.57286 l 18.76172,3.43965 26.26641,16.57286 -6.56661,21.26328 c 0,0 -14.07129,33.14571 -13.75859,34.39649 0.31269,1.25078 -8.75547,19.6998 -7.50469,19.6998 1.25078,0 11.56973,3.75235 11.56973,3.75235 l 12.19512,11.56973 v 12.82051 l -3.75235,5.62851 -76.92305,-1.56347 -26.26641,5.94121 -16.57286,-7.50469 -7.50468,-7.50469 -3.43965,5.62852 7.19199,5.62851 5.94121,15.94747 -4.37773,26.8918 -17.82364,-4.69043 -7.81738,-25.01563 -7.50469,-30.64415 -8.44277,-25.95371 -15.63477,-36.27266 1.25078,-15.32207 4.69043,-5.31582 c 0,0 14.38399,2.81425 15.63477,4.37773 1.25078,1.56348 14.69668,33.4584 14.69668,33.4584 l 16.26016,38.46153 c 0,0 36.89805,-10.63164 40.65039,-10.31895 3.75235,0.3127 33.14571,-5.94121 33.14571,-5.94121 l 14.07129,-52.53282 -4.06504,-0.93808 -58.47403,21.57598 -14.69668,2.50156 -17.19824,-10.63164 -8.44278,-9.38086 4.37774,-10.31895 6.5666,1.87617 v -18.44902 l 14.38398,-42.83926 -3.12695,-3.12696 -36.89805,18.44903 -10.00625,6.2539 -28.76797,-4.06503 -10.00625,-11.88243 z"
       id="path830"
       inkscape:connector-curvature="0" />
  </g>
</svg>
