<?xml version="1.0" encoding="UTF-8" standalone="no"?>
<!-- Created with Inkscape (http://www.inkscape.org/) -->

<svg
   xmlns:dc="http://purl.org/dc/elements/1.1/"
   xmlns:cc="http://creativecommons.org/ns#"
   xmlns:rdf="http://www.w3.org/1999/02/22-rdf-syntax-ns#"
   xmlns:svg="http://www.w3.org/2000/svg"
   xmlns="http://www.w3.org/2000/svg"
   xmlns:sodipodi="http://sodipodi.sourceforge.net/DTD/sodipodi-0.dtd"
   xmlns:inkscape="http://www.inkscape.org/namespaces/inkscape"
   width="548"
   height="550"
   viewBox="0 0 144.99166 145.52084"
   version="1.1"
   id="svg8"
   inkscape:version="0.92.4 (5da689c313, 2019-01-14)"
   sodipodi:docname="3.svg">
  <defs
     id="defs2" />
  <sodipodi:namedview
     id="base"
     pagecolor="#ffffff"
     bordercolor="#666666"
     borderopacity="1.0"
     inkscape:pageopacity="0.0"
     inkscape:pageshadow="2"
     inkscape:zoom="1.4"
     inkscape:cx="386.19741"
     inkscape:cy="277.0871"
     inkscape:document-units="mm"
     inkscape:current-layer="layer1"
     showgrid="false"
     units="px"
     inkscape:window-width="1920"
     inkscape:window-height="1017"
     inkscape:window-x="-8"
     inkscape:window-y="-8"
     inkscape:window-maximized="1">
    <inkscape:grid
       type="xygrid"
       id="grid3724" />
  </sodipodi:namedview>
  <metadata
     id="metadata5">
    <rdf:RDF>
      <cc:Work
         rdf:about="">
        <dc:format>image/svg+xml</dc:format>
        <dc:type
           rdf:resource="http://purl.org/dc/dcmitype/StillImage" />
        <dc:title></dc:title>
      </cc:Work>
    </rdf:RDF>
  </metadata>
  <g
     inkscape:label="圖層 1"
     inkscape:groupmode="layer"
     id="layer1"
     transform="translate(0,-151.47915)">
    <path
       style="fill:#000000;stroke:#000000;stroke-width:0.26458332px;stroke-linecap:butt;stroke-linejoin:miter;stroke-opacity:1;fill-opacity:1"
       d="m 53.861607,190.4107 12.851191,-3.40179 h 2.267857 l 3.212796,-1.70089 5.291666,-2.64584 2.078871,-4.7247 4.157737,1.13393 1.700892,2.45685 3.590774,1.32291 3.212799,4.34673 0.377976,3.59077 -2.267858,1.51191 -1.889882,4.53571 c 0,0 -1.511903,5.48066 -1.133927,6.61459 0.377976,1.13393 1.322917,7.9375 1.322917,7.9375 l 29.293154,0.18898 3.2128,-1.32291 12.6622,5.85863 3.40179,4.34673 0.94494,1.88987 -1.88989,3.02381 c 0,0 -1.13392,0.94494 -3.0238,0.56697 -1.88989,-0.37798 -10.39435,-4.53572 -10.39435,-4.53572 l -13.22917,-4.53571 -9.63839,-1.88988 -11.906249,0.75595 1.511905,10.01637 -0.566965,10.77232 -2.078868,8.31548 14.363097,2.64583 13.41815,3.77976 3.40179,5.10268 -2.83482,0.37798 -18.331849,-4.15774 -11.528274,-3.40179 -5.102677,16.63096 -6.803573,11.90625 -2.83482,6.42559 -5.858631,1.32292 -1.511906,-4.7247 2.456847,-5.10268 0.188986,-0.94494 -8.126486,-9.44941 12.473215,3.77976 0.944938,-1.13392 8.882441,-17.38691 -0.377976,-2.26786 -3.779761,-1.13393 -29.104166,-3.59077 -4.535715,0.75595 -1.889882,5.10268 -0.944941,1.88988 -1.700892,-0.18899 -2.645833,-1.5119 v -4.15774 l -2.078869,-4.53571 3.023809,-4.15774 3.96875,-0.94494 0.944941,1.5119 4.724702,-8.12648 3.212798,-8.69345 -15.308035,3.96874 -15.686012,5.48066 -3.02381,3.2128 -5.1026782,-0.18899 -7.5595237,-8.88244 4.157738,0.94494 14.9300599,-3.77976 15.686011,-3.2128 12.473215,-2.45685 c 0,0 0.944941,-1.32291 1.133928,-2.07887 0.188989,-0.75595 0.94494,-6.2366 0.94494,-8.69345 0,-2.45684 -2.834822,-9.07143 -2.834822,-10.58333 0,-1.5119 0.188989,-3.59078 0.188989,-3.59078 l 2.645833,0.18899 1.322917,4.91369 3.401785,8.69346 -0.944941,10.20535 28.348215,-2.45684 c 0,0 -1.700893,-16.06399 -1.322917,-17.19792 0.377976,-1.13393 0.944941,-6.80357 0.944941,-6.80357 l -3.779761,-1.32292 -9.449406,1.7009 -8.315475,4.53571 -2.456847,1.70089 -4.535712,-1.32291 -1.889882,-2.07887 z"
       id="path4610"
       inkscape:connector-curvature="0" />
    <path
       style="fill:#ffffff;stroke:#000000;stroke-width:0.26458332px;stroke-linecap:butt;stroke-linejoin:miter;stroke-opacity:1;fill-opacity:1"
       d="m 54.239583,218.9479 -7.9375,19.84375 35.151784,5.48065 2.645834,-17.76488 -1.322917,-0.94494 c 0,0 -8.504462,3.77976 -9.638392,4.15774 -1.133928,0.37798 -3.96875,4.34673 -3.96875,4.34673 l -2.078869,0.37797 -3.401785,-1.88988 -5.291666,-6.61458 0.755951,-1.13393 3.212799,0.75595 14.552083,-4.53571 5.669642,-0.94494 1.133928,0.56696 0.377976,-3.2128 c 0,0 -0.755952,-1.32291 -1.889879,-1.5119 -1.133931,-0.18899 -8.693455,-0.18899 -8.693455,-0.18899 l -11.906249,1.51191 z"
       id="path4612"
       inkscape:connector-curvature="0" />
    <path
       style="fill:#000000;stroke:#000000;stroke-width:0.26458332px;stroke-linecap:butt;stroke-linejoin:miter;stroke-opacity:1;fill-opacity:0.95209581"
       d="m 62.177083,197.78123 c 0,0 0.755951,0.75595 2.078868,0.75595 1.322916,0 10.016371,-3.21279 10.016371,-3.21279 0,0 2.078868,-1.13393 3.590771,0 1.511906,1.13393 1.13393,2.07887 1.13393,2.07887 l -2.078868,3.96875 -7.181548,5.29166 -0.18899,1.51191 -7.559524,-3.2128 c 0,0 -2.645833,-2.26786 -2.645833,-3.2128 0,-0.94494 1.13393,-3.2128 1.13393,-3.2128 z"
       id="path4614"
       inkscape:connector-curvature="0" />
  </g>
</svg>
