<?xml version="1.0" encoding="UTF-8" standalone="no"?>
<!-- Created with Inkscape (http://www.inkscape.org/) -->

<svg
   xmlns:dc="http://purl.org/dc/elements/1.1/"
   xmlns:cc="http://creativecommons.org/ns#"
   xmlns:rdf="http://www.w3.org/1999/02/22-rdf-syntax-ns#"
   xmlns:svg="http://www.w3.org/2000/svg"
   xmlns="http://www.w3.org/2000/svg"
   xmlns:sodipodi="http://sodipodi.sourceforge.net/DTD/sodipodi-0.dtd"
   xmlns:inkscape="http://www.inkscape.org/namespaces/inkscape"
   width="520"
   height="520"
   viewBox="0 0 520 520"
   version="1.1"
   id="svg8"
   inkscape:version="0.92.4 (5da689c313, 2019-01-14)"
   sodipodi:docname="9.svg">
  <defs
     id="defs2" />
  <sodipodi:namedview
     id="base"
     pagecolor="#ffffff"
     bordercolor="#666666"
     borderopacity="1.0"
     inkscape:pageopacity="0.0"
     inkscape:pageshadow="2"
     inkscape:zoom="1.5990005"
     inkscape:cx="263.49457"
     inkscape:cy="245.22506"
     inkscape:document-units="px"
     inkscape:current-layer="layer1"
     showgrid="false"
     units="px"
     inkscape:window-width="1920"
     inkscape:window-height="1001"
     inkscape:window-x="-9"
     inkscape:window-y="-9"
     inkscape:window-maximized="1" />
  <metadata
     id="metadata5">
    <rdf:RDF>
      <cc:Work
         rdf:about="">
        <dc:format>image/svg+xml</dc:format>
        <dc:type
           rdf:resource="http://purl.org/dc/dcmitype/StillImage" />
        <dc:title></dc:title>
      </cc:Work>
    </rdf:RDF>
  </metadata>
  <g
     inkscape:label="圖層 1"
     inkscape:groupmode="layer"
     id="layer1"
     transform="translate(0,-159.41665)">
    <path
       style="fill:#000000;fill-opacity:1;stroke:#000000;stroke-width:1px;stroke-linecap:butt;stroke-linejoin:miter;stroke-opacity:1"
       d="m 186.36643,311.06153 11.88242,-26.26641 -21.88867,-28.76797 1.87617,-10.00625 13.75859,-1.87617 20.0125,35.02188 5.00313,13.1332 -26.8918,45.34082 -30.64414,48.46779 c -14.11968,21.56482 -32.87979,35.39559 -51.90743,48.78047 -13.186376,7.72286 -26.882378,7.54651 -40.650396,6.25391 l 6.253907,-60.6629 c 0,0 1.250781,-66.29141 9.38086,-72.54532 8.130079,-6.25391 15.947462,-19.38711 15.947462,-19.38711 0,0 16.416507,-11.56974 20.168847,-10.94434 3.02098,-5.45795 53.67286,14.32232 53.15821,17.35459 l 14.54034,16.10381 -20.01251,38.77422 -2.50156,-20.63789 -9.38086,-28.76797 -25.01563,-9.38086 -19.38711,1.87617 -18.136328,22.51407 c 0,0 -4.377735,41.27578 -4.377735,43.77735 0,2.50156 6.253907,36.89805 6.253907,36.89805 l 5.96018,20.34091 49.699596,-40.97881 15.63476,-20.63789 15.63477,-33.7711 z"
       id="path868"
       inkscape:connector-curvature="0"
       sodipodi:nodetypes="ccccccccccccsccccccccccscccccc" />
    <path
       style="fill:#000000;fill-opacity:1;stroke:#000000;stroke-width:1px;stroke-linecap:butt;stroke-linejoin:miter;stroke-opacity:1"
       d="m 185.11565,341.70568 5.62851,14.38398 10.63164,1.25078 -11.88242,25.64102 c 0,0 -6.8793,46.9043 -6.8793,52.53282 0,5.62852 -10.63164,94.43399 -10.63164,104.44025 0,10.00625 -9.38086,65.04063 -9.38086,65.04063 l -17.51094,10.00625 c 0,0 -15.63477,-1.25078 -13.1332,-9.38086 2.50156,-8.13008 10.00625,-32.52032 10.00625,-32.52032 l -4.37774,-18.76172 11.25703,5.62852 7.02453,-28.10464 c -1.02901,0.65482 5.34864,-53.59861 10.89069,-62.98129 -3.34977,-3.76943 5.30363,-47.25253 5.51471,-47.38446 l 0.33492,-8.49643 -11.88242,3.75235 c 0,0 -10.63164,20.0125 -10.63164,22.51406 0,2.50157 -18.13633,21.26329 -18.13633,21.26329 0,0 -39.399617,49.40586 -41.90118,51.90743 -2.501563,2.50156 -39.399614,41.27578 -39.399614,41.27578 l -29.237015,26.73545 c -6.288519,1.63034 -12.5682828,3.08556 -18.449025,-3.43964 l 12.038771,-15.94747 11.882423,-19.85615 5.003125,-8.75547 6.253907,11.88242 51.282037,-52.53282 27.673531,-30.1751 c 0,0 10.4753,-13.60225 13.60225,-16.10381 3.12696,-2.50156 25.01563,-26.8918 25.01563,-26.8918 0,0 10.00625,-18.76172 12.50782,-21.88867 2.50156,-3.12696 5.62851,-14.38399 5.62851,-14.38399 l -6.2539,-12.50781 z"
       id="path878"
       inkscape:connector-curvature="0"
       sodipodi:nodetypes="ccccsscccccccccccsccccccccccccccccc" />
    <path
       style="fill:#000000;stroke:#000000;stroke-width:1px;stroke-linecap:butt;stroke-linejoin:miter;stroke-opacity:1;fill-opacity:1"
       d="m 277.04808,257.90332 c -2.50157,4.37774 0,18.13633 0,18.13633 0,0 -13.7586,16.88555 -17.51094,20.01251 -3.75235,3.12695 -11.88243,13.75859 -11.88243,13.75859 0,0 2.50157,3.75234 11.25704,2.50156 8.75547,-1.25078 21.26328,-11.88242 21.26328,-11.88242 l 8.13008,-1.25078 8.13008,-15.00938 -8.13008,-25.01563 -6.8793,-3.12695 z"
       id="path880"
       inkscape:connector-curvature="0" />
    <path
       style="fill:#000000;stroke:#000000;stroke-width:1px;stroke-linecap:butt;stroke-linejoin:miter;stroke-opacity:1;fill-opacity:1"
       d="m 385.86606,235.38926 4.37773,5.62851 -6.8793,24.39024 9.38087,1.25078 9.38086,-3.12695 17.51093,10.63164 18.13633,-5.00312 -3.12695,-11.88243 -18.13633,-26.8918 -11.25703,-6.87929 h -13.7586 l -3.12695,1.87617 z"
       id="path882"
       inkscape:connector-curvature="0" />
    <path
       style="fill:#000000;fill-opacity:1;stroke:#000000;stroke-width:1px;stroke-linecap:butt;stroke-linejoin:miter;stroke-opacity:1"
       d="m 228.89299,331.69942 c 3.12696,1.87618 11.25704,12.50782 11.25704,12.50782 l 68.16758,-18.13633 2.50156,-48.15508 c 0,0 18.76173,-3.12696 19.38712,2.50156 0.62539,5.62851 -3.75235,15.63477 -3.75235,18.13633 0,2.50156 -9.38086,10.00625 -5.00312,13.75859 4.37773,3.75235 10.00625,11.25704 13.1332,10.00625 3.12695,-1.25078 13.7586,-5.00312 13.7586,-5.00312 L 349.5934,279.792 v -25.64102 l 8.13008,-7.50469 6.2539,10.63164 -5.00312,33.14571 -3.12696,25.01563 60.6629,-8.75547 48.15508,8.75547 c 6.8793,1.25078 35.64727,20.63789 35.64727,20.63789 l 4.37774,15.63477 -5.00313,7.50469 c 0,0 -11.88242,3.75234 -17.51094,0 -5.62851,-3.75235 -37.52344,-21.88868 -37.52344,-21.88868 l -15.63476,-10.63164 -41.27579,-6.25391 -35.64727,7.50469 1.87617,30.64414 36.89805,-14.38398 18.76172,11.88242 -3.12695,16.88555 18.76172,11.25703 2.50156,5.00313 -3.12695,15.00938 -9.38086,61.28828 2.50156,76.29767 -1.87617,49.40586 -10.00625,40.6504 -11.25703,14.38398 -14.38399,-23.13945 -10.00625,-20.6379 5.00313,-46.27891 -18.76173,-1.87617 -30.01875,2.50156 -28.76797,9.38086 -12.50781,5.00313 -8.13008,18.76172 -15.63477,-5.00312 -16.88555,-29.39337 c 0,0 10.00625,-27.51719 10.00625,-35.64727 0,-8.13008 5.00313,-46.9043 5.00313,-49.40586 0,-2.50156 -6.25391,-58.78673 -6.25391,-58.78673 v -10.63164 h 16.26016 l 17.51094,12.50782 6.8793,16.26015 c 0,0 -13.13321,38.14884 -11.88243,41.90118 1.25078,3.75234 1.87617,49.40586 1.87617,52.53282 v 20.0125 c 0,0 5.21158,-0.63702 6.8793,-2.50156 2.85639,-3.19349 49.63478,-14.56798 49.40587,-12.50782 15.50486,-3.54489 28.89649,-1.45453 40.65039,5.00313 6.30223,2.05868 11.02957,6.3222 14.38399,12.50781 0,0 3.75234,13.13321 -0.62539,13.13321 -4.37774,0 -14.0713,-3.75235 -14.0713,-3.75235 l 1.25078,9.38087 13.7586,6.87929 8.75547,-20.0125 -0.93808,-18.13633 -4.69044,-71.91993 c 0,0 1.56348,-65.66602 -0.31269,-68.16759 -1.87617,-2.50156 -1.25078,-17.51094 -1.25078,-17.51094 l -35.64727,6.8793 -6.25391,6.8793 -1.87617,21.26328 0.62539,20.6379 16.26016,-3.12696 h 10.00625 l 6.25391,10.63164 -9.38086,13.13321 -29.39336,1.25078 -22.51407,6.8793 c 0,0 -11.25703,2.50156 -14.38399,-0.62539 -10.60153,-6.11679 -14.87025,-19.0813 -12.50781,-18.13633 l 9.38086,0.62539 3.75235,0.62539 c 0,0 -3.2132,-14.44277 -3.75235,-16.88555 -0.86837,-3.93437 2.77753,-27.78104 9.38086,-16.88555 l 4.37774,17.51094 c 0,0 0.62539,11.25703 1.87617,13.7586 1.25078,2.50156 19.23076,-0.93809 19.23076,-0.93809 0,0 -0.46904,-15.94746 0.78174,-19.69981 1.25078,-3.75234 2.50156,-24.39023 2.50156,-24.39023 l -28.76797,13.75859 -13.1332,3.12695 -11.25704,-14.38398 c 0,0 -9.38086,-11.25703 -8.13007,-13.7586 1.25078,-2.50156 5.62851,-11.25703 8.13007,-11.88242 2.50157,-0.62539 16.88555,2.50156 16.88555,2.50156 l 4.37774,-18.76172 -1.25078,-19.38711 10.00625,-1.25078 -1.25078,36.27266 22.51406,-10.63164 0.62539,-26.8918 -19.38711,-1.25078 -33.61475,11.10068 -29.54971,18.29268 -13.1332,15.63477 -20.6379,-19.85616 c -3.71108,-2.2464 -7.56902,-11.54042 -5.94121,-14.69668 2.22415,-4.31251 6.49042,-12.96088 6.5666,-12.35147 z"
       id="path884"
       inkscape:connector-curvature="0"
       sodipodi:nodetypes="ccccssccccccccccsccccccccccccccccccccccccccccccsscccccsscscccsccccccccccccccccccccccsccccscccccsccccccccccccsc" />
    <path
       style="fill:#000000;stroke:#000000;stroke-width:1px;stroke-linecap:butt;stroke-linejoin:miter;stroke-opacity:1;fill-opacity:1"
       d="m 297.06058,483.04397 c 3.12695,1.87617 12.50781,6.25391 12.50781,6.25391 0,0 31.26954,-10.00625 36.27266,-10.00625 5.00313,0 26.26641,-3.75235 26.26641,-3.75235 l 13.7586,14.38399 c 0,0 -14.38399,8.13008 -19.38711,8.13008 -5.00313,0 -27.51719,10.00625 -27.51719,10.00625 l -23.76485,6.8793 -15.63477,-11.88243 -5.62851,-9.38086 z"
       id="path886"
       inkscape:connector-curvature="0" />
  </g>
</svg>
