<?xml version="1.0" encoding="UTF-8" standalone="no"?>
<!-- Created with Inkscape (http://www.inkscape.org/) -->

<svg
   xmlns:dc="http://purl.org/dc/elements/1.1/"
   xmlns:cc="http://creativecommons.org/ns#"
   xmlns:rdf="http://www.w3.org/1999/02/22-rdf-syntax-ns#"
   xmlns:svg="http://www.w3.org/2000/svg"
   xmlns="http://www.w3.org/2000/svg"
   xmlns:sodipodi="http://sodipodi.sourceforge.net/DTD/sodipodi-0.dtd"
   xmlns:inkscape="http://www.inkscape.org/namespaces/inkscape"
   width="520"
   height="520"
   viewBox="0 0 137.58333 137.58334"
   version="1.1"
   id="svg8"
   inkscape:version="0.92.4 (5da689c313, 2019-01-14)"
   sodipodi:docname="5.svg">
  <defs
     id="defs2" />
  <sodipodi:namedview
     id="base"
     pagecolor="#ffffff"
     bordercolor="#666666"
     borderopacity="1.0"
     inkscape:pageopacity="0.0"
     inkscape:pageshadow="2"
     inkscape:zoom="1.4"
     inkscape:cx="247.47591"
     inkscape:cy="251.40652"
     inkscape:document-units="mm"
     inkscape:current-layer="layer1"
     showgrid="false"
     units="px"
     inkscape:window-width="1920"
     inkscape:window-height="1017"
     inkscape:window-x="-8"
     inkscape:window-y="-8"
     inkscape:window-maximized="1">
    <inkscape:grid
       type="xygrid"
       id="grid3724" />
  </sodipodi:namedview>
  <metadata
     id="metadata5">
    <rdf:RDF>
      <cc:Work
         rdf:about="">
        <dc:format>image/svg+xml</dc:format>
        <dc:type
           rdf:resource="http://purl.org/dc/dcmitype/StillImage" />
        <dc:title></dc:title>
      </cc:Work>
    </rdf:RDF>
  </metadata>
  <g
     inkscape:label="圖層 1"
     inkscape:groupmode="layer"
     id="layer1"
     transform="translate(0,-159.41665)">
    <path
       style="fill:#000000;fill-opacity:0.95209578;stroke:#000000;stroke-width:0.26458332px;stroke-linecap:butt;stroke-linejoin:miter;stroke-opacity:1"
       d="m 40.821427,195.89135 c -0.188987,-1.32292 -1.511903,-4.7247 -3.023809,-5.10268 -1.511903,-0.37797 -6.992559,-3.40178 -5.669643,-3.40178 1.322917,0 8.504465,-0.94494 8.504465,-0.94494 l 1.700893,1.13393 3.212798,1.5119 2.456844,5.66964 4.346726,-2.26785 h 2.645833 l 4.157739,1.70089 2.078869,3.2128 -3.023809,1.70089 -6.236608,-2.07887 -5.291666,1.13393 -2.267858,1.88988 -0.944941,2.45684 -2.267855,-2.45684 -3.023811,0.18899 -10.583334,3.96875 -6.992558,5.48065 -2.0923,0.6328 -3.955319,-0.44381 -0.94494,-6.04762 1.511904,-2.45684 c 0,0 -0.188988,1.70089 2.267858,2.26785 2.456845,0.56697 11.717261,-3.40178 11.717261,-3.40178 z"
       id="path4656"
       inkscape:connector-curvature="0"
       sodipodi:nodetypes="ccscccccccccccccccccccccccc" />
    <path
       style="fill:#000000;stroke:#000000;stroke-width:0.26458332px;stroke-linecap:butt;stroke-linejoin:miter;stroke-opacity:1;fill-opacity:0.95209581"
       d="m 35.340774,213.65623 c 0.755951,0.56697 1.322916,0.75595 1.322916,0.75595 l 7.181549,-3.59077 1.322916,-1.70089 h 2.456844 l 2.834823,1.70089 v 1.13393 l -9.638395,7.37054 -3.590772,-0.94495 -2.267857,-2.83482 z"
       id="path4658"
       inkscape:connector-curvature="0" />
    <path
       style="fill:#000000;stroke:#000000;stroke-width:0.26458332px;stroke-linecap:butt;stroke-linejoin:miter;stroke-opacity:1;fill-opacity:0.95209581"
       d="m 33.261905,225.56248 h 1.511904 l 8.092095,-3.80268 1.534834,-0.56697 6.259536,2.01205 -1.523369,3.40179 -6.803572,3.30254 -1.511906,2.26786 -5.858629,-0.94495 c 0,0 -3.401788,-2.83481 -3.212798,-3.59077 0.188989,-0.75595 1.511905,-2.07887 1.511905,-2.07887 z"
       id="path4660"
       inkscape:connector-curvature="0"
       sodipodi:nodetypes="ccccccccccc" />
    <path
       style="fill:#000000;fill-opacity:0.95209578;stroke:#000000;stroke-width:0.26458332px;stroke-linecap:butt;stroke-linejoin:miter;stroke-opacity:1"
       d="m 35.546847,239.93794 10.289876,-4.27631 2.271792,-3.60814 c 0,0 0.935442,-1.33635 2.138156,-1.06908 1.202714,0.26727 4.81085,2.6727 4.81085,2.6727 l 3.474505,5.07811 -3.741774,10.28988 2.80633,1.60362 -1.870885,2.67269 -11.225321,4.54359 -0.267269,1.60361 1.336347,2.53906 -2.004523,4.00905 c 0,0 -1.46998,0.13363 -2.138156,-0.53454 -0.668173,-0.66818 -3.608136,-5.7463 -3.608136,-5.7463 l -5.746295,-9.08716 -5.612662,-4.00904 -0.801808,-5.7463 2.939964,-2.27179 2.939966,-2.13816 -0.935443,4.00905 3.608139,3.0736 4.409946,2.93996 2.806329,4.00905 1.603618,1.73725 -0.53454,1.60361 6.68174,-4.14267 1.336347,-4.40995 -0.267269,-4.40995 -6.68174,1.87089 -6.147197,-1.06908 z"
       id="path4664"
       inkscape:connector-curvature="0"
       sodipodi:nodetypes="cccscccccccccccccccccccccccccccc" />
    <path
       style="fill:#000000;stroke:#000000;stroke-width:0.26458332px;stroke-linecap:butt;stroke-linejoin:miter;stroke-opacity:1;fill-opacity:0.95209581"
       d="m 74.969102,177.66414 -1.469983,3.20723 1.603619,3.34087 4.944485,3.47451 1.603616,5.87992 -7.349911,2.93997 -4.009043,-1.06908 -0.400905,1.87089 3.34087,5.34539 4.677217,3.0736 c 0,0 4.543581,-2.93997 4.543581,-2.40543 0,0.53454 -1.202714,6.94901 -1.202714,6.94901 l -24.18789,8.55263 -3.608139,-0.66818 0.801809,2.27179 c 0,0 4.81085,2.93997 5.479024,2.53906 0.668176,-0.4009 12.695303,-6.01356 12.695303,-6.01356 l 9.488069,-3.0736 4.409946,-1.06908 1.069078,0.80181 -12.160762,15.43481 -2.138157,-2.87314 -2.138157,-1.20271 -0.668172,5.87993 c 0,0 -0.668174,4.94448 -1.202715,5.61265 -0.534537,0.66818 -10.757597,12.76212 -10.757597,12.76212 1.002261,0.0223 3.01284,0.64954 3.006782,0.0668 l 8.552624,-7.34991 0.80181,0.26727 2.00452,11.35895 3.207234,7.61719 -4.276312,-1.20272 -1.069078,2.53906 c 0,0 3.073601,2.93997 3.741774,2.93997 0.668174,0 3.073599,0.53454 3.875408,0.26727 0.801809,-0.26727 8.819893,-3.87541 8.819893,-3.87541 0,0 6.949009,-2.27179 7.617182,-2.00452 0.668174,0.26727 4.009044,0.13363 4.009044,0.13363 l 2.806325,2.27179 c 0,0 -1.603612,2.2718 0.66818,4.00905 2.27179,1.73725 2.53906,2.13815 2.53906,2.13815 l 2.40542,-0.93544 2.00453,-7.88445 -0.26727,-20.44612 -1.46999,-3.87541 1.87089,-5.61266 -0.93544,-2.80633 -6.81538,-5.74629 -2.539056,-0.26727 -7.750816,4.67721 -4.009043,1.20272 -4.543581,-0.40091 -1.202714,1.87089 2.939965,3.60814 3.808591,0.73498 8.151719,-4.2763 4.209495,1.00226 0.40091,10.82441 0.66817,15.63527 c 0,0 -2.80633,-1.06908 -3.741775,-1.06908 -0.935442,0 -17.172066,3.40769 -17.172066,3.40769 l -0.868627,-1.40317 -0.267269,-3.20723 -2.00452,-7.48355 0.534537,-8.95353 0.668174,-2.67269 -1.603616,-2.00452 1.403166,-2.07134 2.204972,-3.27405 5.211755,-6.54811 5.879931,-8.28535 10.557148,-2.13816 12.16076,0.53454 5.87993,0.66817 3.20723,0.66818 7.08265,-2.93997 -0.66818,-2.80633 -3.0736,-1.06908 h -2.40542 -3.47451 c 0,0 -2.80633,-0.53453 -4.00904,-2.00452 -1.20271,-1.46998 -6.68174,-9.35443 -6.68174,-9.35443 v 4.54358 l 3.0736,7.88445 -17.506152,1.73726 0.668176,-2.2718 7.750816,-6.949 3.20723,-4.54359 4.54358,-13.63074 -2.00452,-0.40091 -3.74177,3.60814 -4.67722,11.8935 -7.617176,9.75534 -1.469983,2.67269 -6.147199,1.73725 2.405424,-11.75986 9.48807,-6.5481 1.069078,-2.53906 -4.009043,-3.0736 -6.280836,0.80181 -0.400902,-1.46998 -3.34087,-4.94449 -8.418991,-3.20723 -1.603616,0.13363 z"
       id="path4666"
       inkscape:connector-curvature="0"
       sodipodi:nodetypes="ccccccccccsccccccccccccccccccccccsscsccscccccccccccccccccccsccccccccccccccccccccccccccccccccccccccccccccc" />
    <path
       style="fill:#000000;stroke:#000000;stroke-width:0.26458332px;stroke-linecap:butt;stroke-linejoin:miter;stroke-opacity:1;fill-opacity:0.95209581"
       d="m 79.579501,242.54382 c 0,0 2.806329,1.20271 3.073598,0.66817 0.267272,-0.53454 5.813113,-2.87315 5.813113,-2.87315 l 3.674956,-1.06908 5.078122,0.93545 2.138156,0.80181 -1.135896,3.4745 -7.550364,2.73951 -5.011304,2.87315 -2.405425,0.26727 -3.541321,-2.27179 -0.935444,-2.87315 z"
       id="path4668"
       inkscape:connector-curvature="0" />
  </g>
</svg>
