
<svg version="1.1" baseProfile="full" xmlns="http://www.w3.org/2000/svg" width="512" height="512" viewBox="0,0,512,512">

  <rect width="512" height="512" stroke="red" fill="white"></rect>

  
<svg version="1.1" baseProfile="full" xmlns="http://www.w3.org/2000/svg" width="512" height="512" viewBox="0,0,512,512">

  <rect width="512" height="512" stroke="red" fill="white"></rect>

 


<ellipse cx="150" cy="130" rx="55" ry="68"    transform="translate(5,100)"></ellipse>
<ellipse cx="150" cy="130" rx="50" ry="65"  fill="white"  transform="translate(5,100)"></ellipse>
<ellipse cx="350" cy="130" rx="55" ry="68"    transform="translate(5,100)"></ellipse>
<ellipse cx="350" cy="130" rx="50" ry="65" fill="white"   transform="translate(5,100)"></ellipse>



  <ellipse cx="250" cy="220" rx="169" ry="123"   transform="translate(5,100)"></ellipse>
  <ellipse cx="250" cy="220" rx="165" ry="120" fill="white"  transform="translate(5,100)"></ellipse>
<ellipse cx="250" cy="245" rx="10" ry="8" fill="yellow"   transform="translate(5,100)"></ellipse>




  <circle cx="159" cy="220" r="12"   transform="translate(5,100)"></circle>
  <circle cx="339" cy="220" r="12"   transform="translate(5,100)"></circle>
  <circle cx="339" cy="220" r="5" fill="red"  transform="translate(5,100)"></circle>
<polygon points="297,193 345,245 297,297"  />
<polygon points="300,200 340,245 300,290" fill="red" />
<polygon points="413,192 363,245 413,297"  />
<polygon points="410,200 370,245 410,290" fill="red" />
<circle cx="350" cy="145" r="34"   transform="translate(5,100)"></circle>
<circle cx="350" cy="145" r="30" fill="red"  transform="translate(5,100)"></circle>




  
  
</svg>





  
  
</svg>
