<?xml version="1.0" standalone="no"?>
<!DOCTYPE svg PUBLIC "-//W3C//DTD SVG 1.1//EN" "http://www.w3.org/Graphics/SVG/1.1/DTD/svg11.dtd" >
<svg xmlns="http://www.w3.org/2000/svg" xmlns:xlink="http://www.w3.org/1999/xlink" version="1.1" viewBox="0 0 256 256">
  <g transform="matrix(1 0 0 -1 0 204)">
   <path fill="currentColor"
d="M176 194q12 -7 23 -19q2 -5 -2 -5q-10 -1 -21 -3q-2 -1 -3 -1q-7 -3 -25 -5q-3 0 -3 1t3 2q22 5 39 13q3 4 -1 8q-11 7 -17 8q-37 1 -80 -10q-12 -5 -19 -3q-5 0 0 2q67 20 106 12zM60 180q1 0 1 -1v-2q-3 -3 -4 -15q-1 -10 3 -15q4 -6 1 -9q-2 -3 -4 -3t-2 3q-6 8 -7 20
q-1 4 3 6q2 1 4 8q1 7 5 8zM150 140q1 -2 4 -3q2 -2 4 -2q4 -3 1 -5q-2 -6 -2 -17q0 -10 2 -22q8 2 9 3q1 0 2 1q3 3 6 3q10 1 17 1q1 -1 1 -3q0 -1 -1 -1q-8 2 -34 -8v-90q-1 -2 -2 -3q-2 -1 -3 1q-3 4 -8 9q-3 3 -4 5q-9 7 -13 14q-3 5 2 2q9 -10 19 -12q5 -3 5 3v20
q-1 10 -2 25q-2 11 -1 23q-8 -2 -17 -7q-12 -5 -20 -4q-2 0 -2 1q1 1 3 2q3 -1 13 4q5 1 9 3q9 3 14 5v17v16q-2 10 -4 16q-2 1 -1 2t3 1zM99 137v1q2 -1 6 -1q4 -1 6 -1q4 -4 -1 -9q-6 0 -13 -4q-11 -8 -31 -6q-3 0 -3 3q0 1 3 2q15 2 24 11q2 4 9 4zM115 104q1 -3 8 -2
q5 -5 0 -7q-9 0 -27 -9q-30 -49 -80 -102q-6 -4 -1 2q23 24 37 45q23 35 36 52q-3 -2 -7 -3q-14 -6 -23 -10q-19 -8 -26 -5q-3 0 -3 1t3 2q4 1 12 4q27 10 46 18q12 5 14 10q5 6 11 4zM93 68v2q1 1 3 -1q5 -9 2 -13q-10 -23 -10 -40q3 -14 16 -19q41 -19 123 -5q6 2 4 8
q-6 14 -13 30q-3 5 1 1q11 -13 15 -23q2 -8 8 -11q2 -1 1 -3q0 -1 -2 -2q-6 1 -18 -4q-24 -5 -62 -4q-35 1 -51 7q-29 9 -26 40q0 7 5 25q2 4 3 9q0 1 1 3zM115 59q5 -3 10 -5q6 -3 8 -7t-1 -5q-11 3 -18 15q-1 3 1 2z" />
  </g>

</svg>
