<?xml version="1.0" standalone="no"?>
<!DOCTYPE svg PUBLIC "-//W3C//DTD SVG 1.1//EN" "http://www.w3.org/Graphics/SVG/1.1/DTD/svg11.dtd" >
<svg xmlns="http://www.w3.org/2000/svg" xmlns:xlink="http://www.w3.org/1999/xlink" version="1.1" viewBox="0 0 256 256">
  <g transform="matrix(1 0 0 -1 0 204)">
   <path fill="currentColor"
d="M141 85q4 -4 10 -8q3 -4 0 -6q-4 -2 -7 -10q-14 -27 -31 -48q31 2 61 10q-2 1 -3 3l-12 14q-4 4 1 2q17 -12 42 -34q8 -7 2 -10q-7 -4 -12 2q-4 3 -6 7q-7 9 -10 13q-37 -10 -72 -17q-8 -2 -9 2q-6 10 0 8q7 -2 13 0q29 39 30 70v2q1 1 3 0zM117 151q8 -7 14 -9
q4 -3 0 -7q-4 -2 -7 -20q7 2 26 5q7 2 10 3q4 0 7 5q2 4 9 3q15 -4 18 -7q2 -5 -1 -6q-7 -1 -12 4q-4 1 -16 -2q-15 -3 -42 -10q-31 -76 -81 -116q-8 -4 -2 2q50 47 76 113q-2 -1 -5 -2q-11 -2 -21 -5q-11 -4 -26 1q-3 0 -2 1q0 1 3 2q25 0 52 7q7 24 -1 36q-3 4 1 2z
M94 193q-6 3 0 2q20 -6 37 -20q36 6 53 0q15 -5 21 -16q1 -3 -1 -5q-2 -1 -5 1q-10 2 -19 1q-11 -3 -25 -4q-8 0 0 2q19 4 35 12q2 1 2 2l-3 2q-14 8 -39 4q-3 -1 -7 -2q-5 -1 -9 -1q0 -2 -1 -5t0 -4q-2 -5 -6 -6q-9 1 -15 10q-20 -5 -25 -10q-2 -3 -13 0q-9 -7 -9 -13
q-1 -5 3 -11q4 -5 4 -9q-3 -6 -8 -1q-10 11 -5 22q3 4 8 10q4 6 8 11q2 0 1 -1q0 -1 -1 -2v-3q4 0 11 3t24 8q-3 2 -2 8q-1 7 -14 15z" />
  </g>

</svg>
